G04 #@! TF.GenerationSoftware,KiCad,Pcbnew,(5.1.2)-1*
G04 #@! TF.CreationDate,2019-09-14T09:46:05-05:00*
G04 #@! TF.ProjectId,attiny-devboard,61747469-6e79-42d6-9465-76626f617264,rev?*
G04 #@! TF.SameCoordinates,Original*
G04 #@! TF.FileFunction,Soldermask,Top*
G04 #@! TF.FilePolarity,Negative*
%FSLAX46Y46*%
G04 Gerber Fmt 4.6, Leading zero omitted, Abs format (unit mm)*
G04 Created by KiCad (PCBNEW (5.1.2)-1) date 2019-09-14 09:46:05*
%MOMM*%
%LPD*%
G04 APERTURE LIST*
%ADD10C,0.100000*%
G04 APERTURE END LIST*
D10*
G36*
X115784583Y-94975279D02*
G01*
X115850767Y-94981797D01*
X116020606Y-95033317D01*
X116177131Y-95116982D01*
X116212869Y-95146312D01*
X116314326Y-95229574D01*
X116397588Y-95331031D01*
X116426918Y-95366769D01*
X116510583Y-95523294D01*
X116562103Y-95693133D01*
X116579499Y-95869760D01*
X116562103Y-96046387D01*
X116510583Y-96216226D01*
X116426918Y-96372751D01*
X116397588Y-96408489D01*
X116314326Y-96509946D01*
X116212869Y-96593208D01*
X116177131Y-96622538D01*
X116020606Y-96706203D01*
X115850767Y-96757723D01*
X115784583Y-96764241D01*
X115718400Y-96770760D01*
X115629880Y-96770760D01*
X115563697Y-96764241D01*
X115497513Y-96757723D01*
X115327674Y-96706203D01*
X115171149Y-96622538D01*
X115135411Y-96593208D01*
X115033954Y-96509946D01*
X114950692Y-96408489D01*
X114921362Y-96372751D01*
X114837697Y-96216226D01*
X114786177Y-96046387D01*
X114768781Y-95869760D01*
X114786177Y-95693133D01*
X114837697Y-95523294D01*
X114921362Y-95366769D01*
X114950692Y-95331031D01*
X115033954Y-95229574D01*
X115135411Y-95146312D01*
X115171149Y-95116982D01*
X115327674Y-95033317D01*
X115497513Y-94981797D01*
X115563697Y-94975279D01*
X115629880Y-94968760D01*
X115718400Y-94968760D01*
X115784583Y-94975279D01*
X115784583Y-94975279D01*
G37*
G36*
X116575140Y-94230760D02*
G01*
X114773140Y-94230760D01*
X114773140Y-92428760D01*
X116575140Y-92428760D01*
X116575140Y-94230760D01*
X116575140Y-94230760D01*
G37*
G36*
X125330074Y-92573065D02*
G01*
X125367767Y-92584499D01*
X125402503Y-92603066D01*
X125432948Y-92628052D01*
X125457934Y-92658497D01*
X125476501Y-92693233D01*
X125487935Y-92730926D01*
X125492400Y-92776261D01*
X125492400Y-93862939D01*
X125487935Y-93908274D01*
X125476501Y-93945967D01*
X125457934Y-93980703D01*
X125432948Y-94011148D01*
X125402503Y-94036134D01*
X125367767Y-94054701D01*
X125330074Y-94066135D01*
X125284739Y-94070600D01*
X124448061Y-94070600D01*
X124402726Y-94066135D01*
X124365033Y-94054701D01*
X124330297Y-94036134D01*
X124299852Y-94011148D01*
X124274866Y-93980703D01*
X124256299Y-93945967D01*
X124244865Y-93908274D01*
X124240400Y-93862939D01*
X124240400Y-92776261D01*
X124244865Y-92730926D01*
X124256299Y-92693233D01*
X124274866Y-92658497D01*
X124299852Y-92628052D01*
X124330297Y-92603066D01*
X124365033Y-92584499D01*
X124402726Y-92573065D01*
X124448061Y-92568600D01*
X125284739Y-92568600D01*
X125330074Y-92573065D01*
X125330074Y-92573065D01*
G37*
G36*
X127380074Y-92573065D02*
G01*
X127417767Y-92584499D01*
X127452503Y-92603066D01*
X127482948Y-92628052D01*
X127507934Y-92658497D01*
X127526501Y-92693233D01*
X127537935Y-92730926D01*
X127542400Y-92776261D01*
X127542400Y-93862939D01*
X127537935Y-93908274D01*
X127526501Y-93945967D01*
X127507934Y-93980703D01*
X127482948Y-94011148D01*
X127452503Y-94036134D01*
X127417767Y-94054701D01*
X127380074Y-94066135D01*
X127334739Y-94070600D01*
X126498061Y-94070600D01*
X126452726Y-94066135D01*
X126415033Y-94054701D01*
X126380297Y-94036134D01*
X126349852Y-94011148D01*
X126324866Y-93980703D01*
X126306299Y-93945967D01*
X126294865Y-93908274D01*
X126290400Y-93862939D01*
X126290400Y-92776261D01*
X126294865Y-92730926D01*
X126306299Y-92693233D01*
X126324866Y-92658497D01*
X126349852Y-92628052D01*
X126380297Y-92603066D01*
X126415033Y-92584499D01*
X126452726Y-92573065D01*
X126498061Y-92568600D01*
X127334739Y-92568600D01*
X127380074Y-92573065D01*
X127380074Y-92573065D01*
G37*
G36*
X119660574Y-92547665D02*
G01*
X119698267Y-92559099D01*
X119733003Y-92577666D01*
X119763448Y-92602652D01*
X119788434Y-92633097D01*
X119807001Y-92667833D01*
X119818435Y-92705526D01*
X119822900Y-92750861D01*
X119822900Y-93837539D01*
X119818435Y-93882874D01*
X119807001Y-93920567D01*
X119788434Y-93955303D01*
X119763448Y-93985748D01*
X119733003Y-94010734D01*
X119698267Y-94029301D01*
X119660574Y-94040735D01*
X119615239Y-94045200D01*
X118778561Y-94045200D01*
X118733226Y-94040735D01*
X118695533Y-94029301D01*
X118660797Y-94010734D01*
X118630352Y-93985748D01*
X118605366Y-93955303D01*
X118586799Y-93920567D01*
X118575365Y-93882874D01*
X118570900Y-93837539D01*
X118570900Y-92750861D01*
X118575365Y-92705526D01*
X118586799Y-92667833D01*
X118605366Y-92633097D01*
X118630352Y-92602652D01*
X118660797Y-92577666D01*
X118695533Y-92559099D01*
X118733226Y-92547665D01*
X118778561Y-92543200D01*
X119615239Y-92543200D01*
X119660574Y-92547665D01*
X119660574Y-92547665D01*
G37*
G36*
X121710574Y-92547665D02*
G01*
X121748267Y-92559099D01*
X121783003Y-92577666D01*
X121813448Y-92602652D01*
X121838434Y-92633097D01*
X121857001Y-92667833D01*
X121868435Y-92705526D01*
X121872900Y-92750861D01*
X121872900Y-93837539D01*
X121868435Y-93882874D01*
X121857001Y-93920567D01*
X121838434Y-93955303D01*
X121813448Y-93985748D01*
X121783003Y-94010734D01*
X121748267Y-94029301D01*
X121710574Y-94040735D01*
X121665239Y-94045200D01*
X120828561Y-94045200D01*
X120783226Y-94040735D01*
X120745533Y-94029301D01*
X120710797Y-94010734D01*
X120680352Y-93985748D01*
X120655366Y-93955303D01*
X120636799Y-93920567D01*
X120625365Y-93882874D01*
X120620900Y-93837539D01*
X120620900Y-92750861D01*
X120625365Y-92705526D01*
X120636799Y-92667833D01*
X120655366Y-92633097D01*
X120680352Y-92602652D01*
X120710797Y-92577666D01*
X120745533Y-92559099D01*
X120783226Y-92547665D01*
X120828561Y-92543200D01*
X121665239Y-92543200D01*
X121710574Y-92547665D01*
X121710574Y-92547665D01*
G37*
G36*
X114430763Y-86283399D02*
G01*
X114496947Y-86289917D01*
X114666786Y-86341437D01*
X114823311Y-86425102D01*
X114859049Y-86454432D01*
X114960506Y-86537694D01*
X115043768Y-86639151D01*
X115073098Y-86674889D01*
X115156763Y-86831414D01*
X115208283Y-87001253D01*
X115225679Y-87177880D01*
X115208283Y-87354507D01*
X115156763Y-87524346D01*
X115073098Y-87680871D01*
X115043768Y-87716609D01*
X114960506Y-87818066D01*
X114859049Y-87901328D01*
X114823311Y-87930658D01*
X114666786Y-88014323D01*
X114496947Y-88065843D01*
X114430763Y-88072361D01*
X114364580Y-88078880D01*
X114276060Y-88078880D01*
X114209877Y-88072361D01*
X114143693Y-88065843D01*
X113973854Y-88014323D01*
X113817329Y-87930658D01*
X113781591Y-87901328D01*
X113680134Y-87818066D01*
X113596872Y-87716609D01*
X113567542Y-87680871D01*
X113483877Y-87524346D01*
X113432357Y-87354507D01*
X113414961Y-87177880D01*
X113432357Y-87001253D01*
X113483877Y-86831414D01*
X113567542Y-86674889D01*
X113596872Y-86639151D01*
X113680134Y-86537694D01*
X113781591Y-86454432D01*
X113817329Y-86425102D01*
X113973854Y-86341437D01*
X114143693Y-86289917D01*
X114209877Y-86283399D01*
X114276060Y-86276880D01*
X114364580Y-86276880D01*
X114430763Y-86283399D01*
X114430763Y-86283399D01*
G37*
G36*
X116970763Y-86283399D02*
G01*
X117036947Y-86289917D01*
X117206786Y-86341437D01*
X117363311Y-86425102D01*
X117399049Y-86454432D01*
X117500506Y-86537694D01*
X117583768Y-86639151D01*
X117613098Y-86674889D01*
X117696763Y-86831414D01*
X117748283Y-87001253D01*
X117765679Y-87177880D01*
X117748283Y-87354507D01*
X117696763Y-87524346D01*
X117613098Y-87680871D01*
X117583768Y-87716609D01*
X117500506Y-87818066D01*
X117399049Y-87901328D01*
X117363311Y-87930658D01*
X117206786Y-88014323D01*
X117036947Y-88065843D01*
X116970763Y-88072361D01*
X116904580Y-88078880D01*
X116816060Y-88078880D01*
X116749877Y-88072361D01*
X116683693Y-88065843D01*
X116513854Y-88014323D01*
X116357329Y-87930658D01*
X116321591Y-87901328D01*
X116220134Y-87818066D01*
X116136872Y-87716609D01*
X116107542Y-87680871D01*
X116023877Y-87524346D01*
X115972357Y-87354507D01*
X115954961Y-87177880D01*
X115972357Y-87001253D01*
X116023877Y-86831414D01*
X116107542Y-86674889D01*
X116136872Y-86639151D01*
X116220134Y-86537694D01*
X116321591Y-86454432D01*
X116357329Y-86425102D01*
X116513854Y-86341437D01*
X116683693Y-86289917D01*
X116749877Y-86283399D01*
X116816060Y-86276880D01*
X116904580Y-86276880D01*
X116970763Y-86283399D01*
X116970763Y-86283399D01*
G37*
G36*
X139628200Y-87231300D02*
G01*
X137826200Y-87231300D01*
X137826200Y-86479300D01*
X139628200Y-86479300D01*
X139628200Y-87231300D01*
X139628200Y-87231300D01*
G37*
G36*
X132328200Y-87231300D02*
G01*
X130526200Y-87231300D01*
X130526200Y-86479300D01*
X132328200Y-86479300D01*
X132328200Y-87231300D01*
X132328200Y-87231300D01*
G37*
G36*
X122956588Y-85102405D02*
G01*
X122995258Y-85114136D01*
X123030897Y-85133186D01*
X123062137Y-85158823D01*
X123087774Y-85190063D01*
X123106824Y-85225702D01*
X123118555Y-85264372D01*
X123123120Y-85310728D01*
X123123120Y-85961952D01*
X123118555Y-86008308D01*
X123106824Y-86046978D01*
X123087774Y-86082617D01*
X123062137Y-86113857D01*
X123030897Y-86139494D01*
X122995258Y-86158544D01*
X122956588Y-86170275D01*
X122910232Y-86174840D01*
X121834008Y-86174840D01*
X121787652Y-86170275D01*
X121748982Y-86158544D01*
X121713343Y-86139494D01*
X121682103Y-86113857D01*
X121656466Y-86082617D01*
X121637416Y-86046978D01*
X121625685Y-86008308D01*
X121621120Y-85961952D01*
X121621120Y-85310728D01*
X121625685Y-85264372D01*
X121637416Y-85225702D01*
X121656466Y-85190063D01*
X121682103Y-85158823D01*
X121713343Y-85133186D01*
X121748982Y-85114136D01*
X121787652Y-85102405D01*
X121834008Y-85097840D01*
X122910232Y-85097840D01*
X122956588Y-85102405D01*
X122956588Y-85102405D01*
G37*
G36*
X139628200Y-85961300D02*
G01*
X137826200Y-85961300D01*
X137826200Y-85209300D01*
X139628200Y-85209300D01*
X139628200Y-85961300D01*
X139628200Y-85961300D01*
G37*
G36*
X132328200Y-85961300D02*
G01*
X130526200Y-85961300D01*
X130526200Y-85209300D01*
X132328200Y-85209300D01*
X132328200Y-85961300D01*
X132328200Y-85961300D01*
G37*
G36*
X144657474Y-84455765D02*
G01*
X144695167Y-84467199D01*
X144729903Y-84485766D01*
X144760348Y-84510752D01*
X144785334Y-84541197D01*
X144803901Y-84575933D01*
X144815335Y-84613626D01*
X144819800Y-84658961D01*
X144819800Y-85495639D01*
X144815335Y-85540974D01*
X144803901Y-85578667D01*
X144785334Y-85613403D01*
X144760348Y-85643848D01*
X144729903Y-85668834D01*
X144695167Y-85687401D01*
X144657474Y-85698835D01*
X144612139Y-85703300D01*
X143525461Y-85703300D01*
X143480126Y-85698835D01*
X143442433Y-85687401D01*
X143407697Y-85668834D01*
X143377252Y-85643848D01*
X143352266Y-85613403D01*
X143333699Y-85578667D01*
X143322265Y-85540974D01*
X143317800Y-85495639D01*
X143317800Y-84658961D01*
X143322265Y-84613626D01*
X143333699Y-84575933D01*
X143352266Y-84541197D01*
X143377252Y-84510752D01*
X143407697Y-84485766D01*
X143442433Y-84467199D01*
X143480126Y-84455765D01*
X143525461Y-84451300D01*
X144612139Y-84451300D01*
X144657474Y-84455765D01*
X144657474Y-84455765D01*
G37*
G36*
X114430763Y-83743399D02*
G01*
X114496947Y-83749917D01*
X114666786Y-83801437D01*
X114823311Y-83885102D01*
X114859049Y-83914432D01*
X114960506Y-83997694D01*
X115033757Y-84086952D01*
X115073098Y-84134889D01*
X115073099Y-84134891D01*
X115128671Y-84238857D01*
X115156763Y-84291414D01*
X115208283Y-84461253D01*
X115225679Y-84637880D01*
X115208283Y-84814507D01*
X115156763Y-84984346D01*
X115073098Y-85140871D01*
X115058365Y-85158823D01*
X114960506Y-85278066D01*
X114859049Y-85361328D01*
X114823311Y-85390658D01*
X114666786Y-85474323D01*
X114496947Y-85525843D01*
X114430762Y-85532362D01*
X114364580Y-85538880D01*
X114276060Y-85538880D01*
X114209878Y-85532362D01*
X114143693Y-85525843D01*
X113973854Y-85474323D01*
X113817329Y-85390658D01*
X113781591Y-85361328D01*
X113680134Y-85278066D01*
X113582275Y-85158823D01*
X113567542Y-85140871D01*
X113483877Y-84984346D01*
X113432357Y-84814507D01*
X113414961Y-84637880D01*
X113432357Y-84461253D01*
X113483877Y-84291414D01*
X113511970Y-84238857D01*
X113567541Y-84134891D01*
X113567542Y-84134889D01*
X113606883Y-84086952D01*
X113680134Y-83997694D01*
X113781591Y-83914432D01*
X113817329Y-83885102D01*
X113973854Y-83801437D01*
X114143693Y-83749917D01*
X114209877Y-83743399D01*
X114276060Y-83736880D01*
X114364580Y-83736880D01*
X114430763Y-83743399D01*
X114430763Y-83743399D01*
G37*
G36*
X116970763Y-83743399D02*
G01*
X117036947Y-83749917D01*
X117206786Y-83801437D01*
X117363311Y-83885102D01*
X117399049Y-83914432D01*
X117500506Y-83997694D01*
X117573757Y-84086952D01*
X117613098Y-84134889D01*
X117613099Y-84134891D01*
X117668671Y-84238857D01*
X117696763Y-84291414D01*
X117748283Y-84461253D01*
X117765679Y-84637880D01*
X117748283Y-84814507D01*
X117696763Y-84984346D01*
X117613098Y-85140871D01*
X117598365Y-85158823D01*
X117500506Y-85278066D01*
X117399049Y-85361328D01*
X117363311Y-85390658D01*
X117206786Y-85474323D01*
X117036947Y-85525843D01*
X116970762Y-85532362D01*
X116904580Y-85538880D01*
X116816060Y-85538880D01*
X116749878Y-85532362D01*
X116683693Y-85525843D01*
X116513854Y-85474323D01*
X116357329Y-85390658D01*
X116321591Y-85361328D01*
X116220134Y-85278066D01*
X116122275Y-85158823D01*
X116107542Y-85140871D01*
X116023877Y-84984346D01*
X115972357Y-84814507D01*
X115954961Y-84637880D01*
X115972357Y-84461253D01*
X116023877Y-84291414D01*
X116051970Y-84238857D01*
X116107541Y-84134891D01*
X116107542Y-84134889D01*
X116146883Y-84086952D01*
X116220134Y-83997694D01*
X116321591Y-83914432D01*
X116357329Y-83885102D01*
X116513854Y-83801437D01*
X116683693Y-83749917D01*
X116749877Y-83743399D01*
X116816060Y-83736880D01*
X116904580Y-83736880D01*
X116970763Y-83743399D01*
X116970763Y-83743399D01*
G37*
G36*
X132328200Y-84691300D02*
G01*
X130526200Y-84691300D01*
X130526200Y-83939300D01*
X132328200Y-83939300D01*
X132328200Y-84691300D01*
X132328200Y-84691300D01*
G37*
G36*
X139628200Y-84691300D02*
G01*
X137826200Y-84691300D01*
X137826200Y-83939300D01*
X139628200Y-83939300D01*
X139628200Y-84691300D01*
X139628200Y-84691300D01*
G37*
G36*
X122956588Y-83227405D02*
G01*
X122995258Y-83239136D01*
X123030897Y-83258186D01*
X123062137Y-83283823D01*
X123087774Y-83315063D01*
X123106824Y-83350702D01*
X123118555Y-83389372D01*
X123123120Y-83435728D01*
X123123120Y-84086952D01*
X123118555Y-84133308D01*
X123106824Y-84171978D01*
X123087774Y-84207617D01*
X123062137Y-84238857D01*
X123030897Y-84264494D01*
X122995258Y-84283544D01*
X122956588Y-84295275D01*
X122910232Y-84299840D01*
X121834008Y-84299840D01*
X121787652Y-84295275D01*
X121748982Y-84283544D01*
X121713343Y-84264494D01*
X121682103Y-84238857D01*
X121656466Y-84207617D01*
X121637416Y-84171978D01*
X121625685Y-84133308D01*
X121621120Y-84086952D01*
X121621120Y-83435728D01*
X121625685Y-83389372D01*
X121637416Y-83350702D01*
X121656466Y-83315063D01*
X121682103Y-83283823D01*
X121713343Y-83258186D01*
X121748982Y-83239136D01*
X121787652Y-83227405D01*
X121834008Y-83222840D01*
X122910232Y-83222840D01*
X122956588Y-83227405D01*
X122956588Y-83227405D01*
G37*
G36*
X144657474Y-82405765D02*
G01*
X144695167Y-82417199D01*
X144729903Y-82435766D01*
X144760348Y-82460752D01*
X144785334Y-82491197D01*
X144803901Y-82525933D01*
X144815335Y-82563626D01*
X144819800Y-82608961D01*
X144819800Y-83445639D01*
X144815335Y-83490974D01*
X144803901Y-83528667D01*
X144785334Y-83563403D01*
X144760348Y-83593848D01*
X144729903Y-83618834D01*
X144695167Y-83637401D01*
X144657474Y-83648835D01*
X144612139Y-83653300D01*
X143525461Y-83653300D01*
X143480126Y-83648835D01*
X143442433Y-83637401D01*
X143407697Y-83618834D01*
X143377252Y-83593848D01*
X143352266Y-83563403D01*
X143333699Y-83528667D01*
X143322265Y-83490974D01*
X143317800Y-83445639D01*
X143317800Y-82608961D01*
X143322265Y-82563626D01*
X143333699Y-82525933D01*
X143352266Y-82491197D01*
X143377252Y-82460752D01*
X143407697Y-82435766D01*
X143442433Y-82417199D01*
X143480126Y-82405765D01*
X143525461Y-82401300D01*
X144612139Y-82401300D01*
X144657474Y-82405765D01*
X144657474Y-82405765D01*
G37*
G36*
X139628200Y-83421300D02*
G01*
X137826200Y-83421300D01*
X137826200Y-82669300D01*
X139628200Y-82669300D01*
X139628200Y-83421300D01*
X139628200Y-83421300D01*
G37*
G36*
X132328200Y-83421300D02*
G01*
X130526200Y-83421300D01*
X130526200Y-82669300D01*
X132328200Y-82669300D01*
X132328200Y-83421300D01*
X132328200Y-83421300D01*
G37*
G36*
X115221320Y-82998880D02*
G01*
X113419320Y-82998880D01*
X113419320Y-81196880D01*
X115221320Y-81196880D01*
X115221320Y-82998880D01*
X115221320Y-82998880D01*
G37*
G36*
X116970763Y-81203399D02*
G01*
X117036947Y-81209917D01*
X117206786Y-81261437D01*
X117363311Y-81345102D01*
X117399049Y-81374432D01*
X117500506Y-81457694D01*
X117583768Y-81559151D01*
X117613098Y-81594889D01*
X117696763Y-81751414D01*
X117748283Y-81921253D01*
X117765679Y-82097880D01*
X117748283Y-82274507D01*
X117696763Y-82444346D01*
X117613098Y-82600871D01*
X117597091Y-82620375D01*
X117500506Y-82738066D01*
X117399049Y-82821328D01*
X117363311Y-82850658D01*
X117206786Y-82934323D01*
X117036947Y-82985843D01*
X116970762Y-82992362D01*
X116904580Y-82998880D01*
X116816060Y-82998880D01*
X116749878Y-82992362D01*
X116683693Y-82985843D01*
X116513854Y-82934323D01*
X116357329Y-82850658D01*
X116321591Y-82821328D01*
X116220134Y-82738066D01*
X116123549Y-82620375D01*
X116107542Y-82600871D01*
X116023877Y-82444346D01*
X115972357Y-82274507D01*
X115954961Y-82097880D01*
X115972357Y-81921253D01*
X116023877Y-81751414D01*
X116107542Y-81594889D01*
X116136872Y-81559151D01*
X116220134Y-81457694D01*
X116321591Y-81374432D01*
X116357329Y-81345102D01*
X116513854Y-81261437D01*
X116683693Y-81209917D01*
X116749877Y-81203399D01*
X116816060Y-81196880D01*
X116904580Y-81196880D01*
X116970763Y-81203399D01*
X116970763Y-81203399D01*
G37*
M02*
