G04 #@! TF.GenerationSoftware,KiCad,Pcbnew,(5.1.2)-1*
G04 #@! TF.CreationDate,2019-09-14T09:46:05-05:00*
G04 #@! TF.ProjectId,attiny-devboard,61747469-6e79-42d6-9465-76626f617264,rev?*
G04 #@! TF.SameCoordinates,Original*
G04 #@! TF.FileFunction,Copper,L2,Bot*
G04 #@! TF.FilePolarity,Positive*
%FSLAX46Y46*%
G04 Gerber Fmt 4.6, Leading zero omitted, Abs format (unit mm)*
G04 Created by KiCad (PCBNEW (5.1.2)-1) date 2019-09-14 09:46:05*
%MOMM*%
%LPD*%
G04 APERTURE LIST*
%ADD10R,1.700000X1.700000*%
%ADD11O,1.700000X1.700000*%
%ADD12C,0.800000*%
%ADD13C,0.250000*%
%ADD14C,0.254000*%
G04 APERTURE END LIST*
D10*
X115674140Y-93329760D03*
D11*
X115674140Y-95869760D03*
X116860320Y-87177880D03*
X114320320Y-87177880D03*
X116860320Y-84637880D03*
X114320320Y-84637880D03*
X116860320Y-82097880D03*
D10*
X114320320Y-82097880D03*
D12*
X144068800Y-81356200D03*
X119202200Y-91147900D03*
X141361160Y-84320380D03*
X111236760Y-87208360D03*
X128506220Y-83055460D03*
D13*
X141361160Y-83754695D02*
X139325885Y-81719420D01*
X141361160Y-84320380D02*
X141361160Y-83754695D01*
X115170319Y-83787881D02*
X114320320Y-84637880D01*
X115495321Y-83462879D02*
X115170319Y-83787881D01*
X117385081Y-83462879D02*
X115495321Y-83462879D01*
X119128540Y-81719420D02*
X117385081Y-83462879D01*
X139325885Y-81719420D02*
X119128540Y-81719420D01*
X111236760Y-87774045D02*
X112593855Y-89131140D01*
X111236760Y-87208360D02*
X111236760Y-87774045D01*
X112593855Y-89131140D02*
X122430540Y-89131140D01*
X122430540Y-89131140D02*
X128506220Y-83055460D01*
D14*
G36*
X146660001Y-98400000D02*
G01*
X109880000Y-98400000D01*
X109880000Y-95869760D01*
X114181955Y-95869760D01*
X114210627Y-96160871D01*
X114295541Y-96440794D01*
X114433434Y-96698774D01*
X114619006Y-96924894D01*
X114845126Y-97110466D01*
X115103106Y-97248359D01*
X115383029Y-97333273D01*
X115601190Y-97354760D01*
X115747090Y-97354760D01*
X115965251Y-97333273D01*
X116245174Y-97248359D01*
X116503154Y-97110466D01*
X116729274Y-96924894D01*
X116914846Y-96698774D01*
X117052739Y-96440794D01*
X117137653Y-96160871D01*
X117166325Y-95869760D01*
X117137653Y-95578649D01*
X117052739Y-95298726D01*
X116914846Y-95040746D01*
X116729274Y-94814626D01*
X116699453Y-94790153D01*
X116768320Y-94769262D01*
X116878634Y-94710297D01*
X116975325Y-94630945D01*
X117054677Y-94534254D01*
X117113642Y-94423940D01*
X117149952Y-94304242D01*
X117162212Y-94179760D01*
X117159140Y-93615510D01*
X117000390Y-93456760D01*
X115801140Y-93456760D01*
X115801140Y-93476760D01*
X115547140Y-93476760D01*
X115547140Y-93456760D01*
X114347890Y-93456760D01*
X114189140Y-93615510D01*
X114186068Y-94179760D01*
X114198328Y-94304242D01*
X114234638Y-94423940D01*
X114293603Y-94534254D01*
X114372955Y-94630945D01*
X114469646Y-94710297D01*
X114579960Y-94769262D01*
X114648827Y-94790153D01*
X114619006Y-94814626D01*
X114433434Y-95040746D01*
X114295541Y-95298726D01*
X114210627Y-95578649D01*
X114181955Y-95869760D01*
X109880000Y-95869760D01*
X109880000Y-92479760D01*
X114186068Y-92479760D01*
X114189140Y-93044010D01*
X114347890Y-93202760D01*
X115547140Y-93202760D01*
X115547140Y-92003510D01*
X115801140Y-92003510D01*
X115801140Y-93202760D01*
X117000390Y-93202760D01*
X117159140Y-93044010D01*
X117162212Y-92479760D01*
X117149952Y-92355278D01*
X117113642Y-92235580D01*
X117054677Y-92125266D01*
X116975325Y-92028575D01*
X116878634Y-91949223D01*
X116768320Y-91890258D01*
X116648622Y-91853948D01*
X116524140Y-91841688D01*
X115959890Y-91844760D01*
X115801140Y-92003510D01*
X115547140Y-92003510D01*
X115388390Y-91844760D01*
X114824140Y-91841688D01*
X114699658Y-91853948D01*
X114579960Y-91890258D01*
X114469646Y-91949223D01*
X114372955Y-92028575D01*
X114293603Y-92125266D01*
X114234638Y-92235580D01*
X114198328Y-92355278D01*
X114186068Y-92479760D01*
X109880000Y-92479760D01*
X109880000Y-87106421D01*
X110201760Y-87106421D01*
X110201760Y-87310299D01*
X110241534Y-87510258D01*
X110319555Y-87698616D01*
X110432823Y-87868134D01*
X110487773Y-87923084D01*
X110531214Y-88066292D01*
X110555797Y-88112281D01*
X110601786Y-88198321D01*
X110672961Y-88285047D01*
X110696760Y-88314046D01*
X110725758Y-88337844D01*
X112030056Y-89642143D01*
X112053854Y-89671141D01*
X112082852Y-89694939D01*
X112169578Y-89766114D01*
X112301608Y-89836686D01*
X112444869Y-89880143D01*
X112556522Y-89891140D01*
X112556531Y-89891140D01*
X112593854Y-89894816D01*
X112631177Y-89891140D01*
X122393218Y-89891140D01*
X122430540Y-89894816D01*
X122467862Y-89891140D01*
X122467873Y-89891140D01*
X122579526Y-89880143D01*
X122722787Y-89836686D01*
X122854816Y-89766114D01*
X122970541Y-89671141D01*
X122994344Y-89642137D01*
X128546022Y-84090460D01*
X128608159Y-84090460D01*
X128808118Y-84050686D01*
X128996476Y-83972665D01*
X129165994Y-83859397D01*
X129310157Y-83715234D01*
X129423425Y-83545716D01*
X129501446Y-83357358D01*
X129541220Y-83157399D01*
X129541220Y-82953521D01*
X129501446Y-82753562D01*
X129423425Y-82565204D01*
X129366106Y-82479420D01*
X139011084Y-82479420D01*
X140419888Y-83888225D01*
X140365934Y-84018482D01*
X140326160Y-84218441D01*
X140326160Y-84422319D01*
X140365934Y-84622278D01*
X140443955Y-84810636D01*
X140557223Y-84980154D01*
X140701386Y-85124317D01*
X140870904Y-85237585D01*
X141059262Y-85315606D01*
X141259221Y-85355380D01*
X141463099Y-85355380D01*
X141663058Y-85315606D01*
X141851416Y-85237585D01*
X142020934Y-85124317D01*
X142165097Y-84980154D01*
X142278365Y-84810636D01*
X142356386Y-84622278D01*
X142396160Y-84422319D01*
X142396160Y-84218441D01*
X142356386Y-84018482D01*
X142278365Y-83830124D01*
X142165097Y-83660606D01*
X142110147Y-83605656D01*
X142066706Y-83462448D01*
X141996134Y-83330419D01*
X141924959Y-83243692D01*
X141901161Y-83214694D01*
X141872163Y-83190896D01*
X139889689Y-81208423D01*
X139865886Y-81179419D01*
X139750161Y-81084446D01*
X139618132Y-81013874D01*
X139474871Y-80970417D01*
X139363218Y-80959420D01*
X139363207Y-80959420D01*
X139325885Y-80955744D01*
X139288563Y-80959420D01*
X119165862Y-80959420D01*
X119128539Y-80955744D01*
X119091216Y-80959420D01*
X119091207Y-80959420D01*
X118979554Y-80970417D01*
X118836293Y-81013874D01*
X118704264Y-81084446D01*
X118588539Y-81179419D01*
X118564741Y-81208417D01*
X118232054Y-81541104D01*
X118131961Y-81330960D01*
X117957908Y-81097611D01*
X117741675Y-80902702D01*
X117491572Y-80753723D01*
X117217211Y-80656399D01*
X116987320Y-80777066D01*
X116987320Y-81970880D01*
X117007320Y-81970880D01*
X117007320Y-82224880D01*
X116987320Y-82224880D01*
X116987320Y-82244880D01*
X116733320Y-82244880D01*
X116733320Y-82224880D01*
X116713320Y-82224880D01*
X116713320Y-81970880D01*
X116733320Y-81970880D01*
X116733320Y-80777066D01*
X116503429Y-80656399D01*
X116229068Y-80753723D01*
X115978965Y-80902702D01*
X115782818Y-81079506D01*
X115759822Y-81003700D01*
X115700857Y-80893386D01*
X115621505Y-80796695D01*
X115524814Y-80717343D01*
X115414500Y-80658378D01*
X115294802Y-80622068D01*
X115170320Y-80609808D01*
X113470320Y-80609808D01*
X113345838Y-80622068D01*
X113226140Y-80658378D01*
X113115826Y-80717343D01*
X113019135Y-80796695D01*
X112939783Y-80893386D01*
X112880818Y-81003700D01*
X112844508Y-81123398D01*
X112832248Y-81247880D01*
X112832248Y-82947880D01*
X112844508Y-83072362D01*
X112880818Y-83192060D01*
X112939783Y-83302374D01*
X113019135Y-83399065D01*
X113115826Y-83478417D01*
X113226140Y-83537382D01*
X113295007Y-83558273D01*
X113265186Y-83582746D01*
X113079614Y-83808866D01*
X112941721Y-84066846D01*
X112856807Y-84346769D01*
X112828135Y-84637880D01*
X112856807Y-84928991D01*
X112941721Y-85208914D01*
X113079614Y-85466894D01*
X113265186Y-85693014D01*
X113491306Y-85878586D01*
X113546111Y-85907880D01*
X113491306Y-85937174D01*
X113265186Y-86122746D01*
X113079614Y-86348866D01*
X112941721Y-86606846D01*
X112856807Y-86886769D01*
X112828135Y-87177880D01*
X112856807Y-87468991D01*
X112941721Y-87748914D01*
X113079614Y-88006894D01*
X113265186Y-88233014D01*
X113433493Y-88371140D01*
X112908657Y-88371140D01*
X112178031Y-87640515D01*
X112231986Y-87510258D01*
X112271760Y-87310299D01*
X112271760Y-87106421D01*
X112231986Y-86906462D01*
X112153965Y-86718104D01*
X112040697Y-86548586D01*
X111896534Y-86404423D01*
X111727016Y-86291155D01*
X111538658Y-86213134D01*
X111338699Y-86173360D01*
X111134821Y-86173360D01*
X110934862Y-86213134D01*
X110746504Y-86291155D01*
X110576986Y-86404423D01*
X110432823Y-86548586D01*
X110319555Y-86718104D01*
X110241534Y-86906462D01*
X110201760Y-87106421D01*
X109880000Y-87106421D01*
X109880000Y-79400000D01*
X146660000Y-79400000D01*
X146660001Y-98400000D01*
X146660001Y-98400000D01*
G37*
X146660001Y-98400000D02*
X109880000Y-98400000D01*
X109880000Y-95869760D01*
X114181955Y-95869760D01*
X114210627Y-96160871D01*
X114295541Y-96440794D01*
X114433434Y-96698774D01*
X114619006Y-96924894D01*
X114845126Y-97110466D01*
X115103106Y-97248359D01*
X115383029Y-97333273D01*
X115601190Y-97354760D01*
X115747090Y-97354760D01*
X115965251Y-97333273D01*
X116245174Y-97248359D01*
X116503154Y-97110466D01*
X116729274Y-96924894D01*
X116914846Y-96698774D01*
X117052739Y-96440794D01*
X117137653Y-96160871D01*
X117166325Y-95869760D01*
X117137653Y-95578649D01*
X117052739Y-95298726D01*
X116914846Y-95040746D01*
X116729274Y-94814626D01*
X116699453Y-94790153D01*
X116768320Y-94769262D01*
X116878634Y-94710297D01*
X116975325Y-94630945D01*
X117054677Y-94534254D01*
X117113642Y-94423940D01*
X117149952Y-94304242D01*
X117162212Y-94179760D01*
X117159140Y-93615510D01*
X117000390Y-93456760D01*
X115801140Y-93456760D01*
X115801140Y-93476760D01*
X115547140Y-93476760D01*
X115547140Y-93456760D01*
X114347890Y-93456760D01*
X114189140Y-93615510D01*
X114186068Y-94179760D01*
X114198328Y-94304242D01*
X114234638Y-94423940D01*
X114293603Y-94534254D01*
X114372955Y-94630945D01*
X114469646Y-94710297D01*
X114579960Y-94769262D01*
X114648827Y-94790153D01*
X114619006Y-94814626D01*
X114433434Y-95040746D01*
X114295541Y-95298726D01*
X114210627Y-95578649D01*
X114181955Y-95869760D01*
X109880000Y-95869760D01*
X109880000Y-92479760D01*
X114186068Y-92479760D01*
X114189140Y-93044010D01*
X114347890Y-93202760D01*
X115547140Y-93202760D01*
X115547140Y-92003510D01*
X115801140Y-92003510D01*
X115801140Y-93202760D01*
X117000390Y-93202760D01*
X117159140Y-93044010D01*
X117162212Y-92479760D01*
X117149952Y-92355278D01*
X117113642Y-92235580D01*
X117054677Y-92125266D01*
X116975325Y-92028575D01*
X116878634Y-91949223D01*
X116768320Y-91890258D01*
X116648622Y-91853948D01*
X116524140Y-91841688D01*
X115959890Y-91844760D01*
X115801140Y-92003510D01*
X115547140Y-92003510D01*
X115388390Y-91844760D01*
X114824140Y-91841688D01*
X114699658Y-91853948D01*
X114579960Y-91890258D01*
X114469646Y-91949223D01*
X114372955Y-92028575D01*
X114293603Y-92125266D01*
X114234638Y-92235580D01*
X114198328Y-92355278D01*
X114186068Y-92479760D01*
X109880000Y-92479760D01*
X109880000Y-87106421D01*
X110201760Y-87106421D01*
X110201760Y-87310299D01*
X110241534Y-87510258D01*
X110319555Y-87698616D01*
X110432823Y-87868134D01*
X110487773Y-87923084D01*
X110531214Y-88066292D01*
X110555797Y-88112281D01*
X110601786Y-88198321D01*
X110672961Y-88285047D01*
X110696760Y-88314046D01*
X110725758Y-88337844D01*
X112030056Y-89642143D01*
X112053854Y-89671141D01*
X112082852Y-89694939D01*
X112169578Y-89766114D01*
X112301608Y-89836686D01*
X112444869Y-89880143D01*
X112556522Y-89891140D01*
X112556531Y-89891140D01*
X112593854Y-89894816D01*
X112631177Y-89891140D01*
X122393218Y-89891140D01*
X122430540Y-89894816D01*
X122467862Y-89891140D01*
X122467873Y-89891140D01*
X122579526Y-89880143D01*
X122722787Y-89836686D01*
X122854816Y-89766114D01*
X122970541Y-89671141D01*
X122994344Y-89642137D01*
X128546022Y-84090460D01*
X128608159Y-84090460D01*
X128808118Y-84050686D01*
X128996476Y-83972665D01*
X129165994Y-83859397D01*
X129310157Y-83715234D01*
X129423425Y-83545716D01*
X129501446Y-83357358D01*
X129541220Y-83157399D01*
X129541220Y-82953521D01*
X129501446Y-82753562D01*
X129423425Y-82565204D01*
X129366106Y-82479420D01*
X139011084Y-82479420D01*
X140419888Y-83888225D01*
X140365934Y-84018482D01*
X140326160Y-84218441D01*
X140326160Y-84422319D01*
X140365934Y-84622278D01*
X140443955Y-84810636D01*
X140557223Y-84980154D01*
X140701386Y-85124317D01*
X140870904Y-85237585D01*
X141059262Y-85315606D01*
X141259221Y-85355380D01*
X141463099Y-85355380D01*
X141663058Y-85315606D01*
X141851416Y-85237585D01*
X142020934Y-85124317D01*
X142165097Y-84980154D01*
X142278365Y-84810636D01*
X142356386Y-84622278D01*
X142396160Y-84422319D01*
X142396160Y-84218441D01*
X142356386Y-84018482D01*
X142278365Y-83830124D01*
X142165097Y-83660606D01*
X142110147Y-83605656D01*
X142066706Y-83462448D01*
X141996134Y-83330419D01*
X141924959Y-83243692D01*
X141901161Y-83214694D01*
X141872163Y-83190896D01*
X139889689Y-81208423D01*
X139865886Y-81179419D01*
X139750161Y-81084446D01*
X139618132Y-81013874D01*
X139474871Y-80970417D01*
X139363218Y-80959420D01*
X139363207Y-80959420D01*
X139325885Y-80955744D01*
X139288563Y-80959420D01*
X119165862Y-80959420D01*
X119128539Y-80955744D01*
X119091216Y-80959420D01*
X119091207Y-80959420D01*
X118979554Y-80970417D01*
X118836293Y-81013874D01*
X118704264Y-81084446D01*
X118588539Y-81179419D01*
X118564741Y-81208417D01*
X118232054Y-81541104D01*
X118131961Y-81330960D01*
X117957908Y-81097611D01*
X117741675Y-80902702D01*
X117491572Y-80753723D01*
X117217211Y-80656399D01*
X116987320Y-80777066D01*
X116987320Y-81970880D01*
X117007320Y-81970880D01*
X117007320Y-82224880D01*
X116987320Y-82224880D01*
X116987320Y-82244880D01*
X116733320Y-82244880D01*
X116733320Y-82224880D01*
X116713320Y-82224880D01*
X116713320Y-81970880D01*
X116733320Y-81970880D01*
X116733320Y-80777066D01*
X116503429Y-80656399D01*
X116229068Y-80753723D01*
X115978965Y-80902702D01*
X115782818Y-81079506D01*
X115759822Y-81003700D01*
X115700857Y-80893386D01*
X115621505Y-80796695D01*
X115524814Y-80717343D01*
X115414500Y-80658378D01*
X115294802Y-80622068D01*
X115170320Y-80609808D01*
X113470320Y-80609808D01*
X113345838Y-80622068D01*
X113226140Y-80658378D01*
X113115826Y-80717343D01*
X113019135Y-80796695D01*
X112939783Y-80893386D01*
X112880818Y-81003700D01*
X112844508Y-81123398D01*
X112832248Y-81247880D01*
X112832248Y-82947880D01*
X112844508Y-83072362D01*
X112880818Y-83192060D01*
X112939783Y-83302374D01*
X113019135Y-83399065D01*
X113115826Y-83478417D01*
X113226140Y-83537382D01*
X113295007Y-83558273D01*
X113265186Y-83582746D01*
X113079614Y-83808866D01*
X112941721Y-84066846D01*
X112856807Y-84346769D01*
X112828135Y-84637880D01*
X112856807Y-84928991D01*
X112941721Y-85208914D01*
X113079614Y-85466894D01*
X113265186Y-85693014D01*
X113491306Y-85878586D01*
X113546111Y-85907880D01*
X113491306Y-85937174D01*
X113265186Y-86122746D01*
X113079614Y-86348866D01*
X112941721Y-86606846D01*
X112856807Y-86886769D01*
X112828135Y-87177880D01*
X112856807Y-87468991D01*
X112941721Y-87748914D01*
X113079614Y-88006894D01*
X113265186Y-88233014D01*
X113433493Y-88371140D01*
X112908657Y-88371140D01*
X112178031Y-87640515D01*
X112231986Y-87510258D01*
X112271760Y-87310299D01*
X112271760Y-87106421D01*
X112231986Y-86906462D01*
X112153965Y-86718104D01*
X112040697Y-86548586D01*
X111896534Y-86404423D01*
X111727016Y-86291155D01*
X111538658Y-86213134D01*
X111338699Y-86173360D01*
X111134821Y-86173360D01*
X110934862Y-86213134D01*
X110746504Y-86291155D01*
X110576986Y-86404423D01*
X110432823Y-86548586D01*
X110319555Y-86718104D01*
X110241534Y-86906462D01*
X110201760Y-87106421D01*
X109880000Y-87106421D01*
X109880000Y-79400000D01*
X146660000Y-79400000D01*
X146660001Y-98400000D01*
M02*
