G04 #@! TF.GenerationSoftware,KiCad,Pcbnew,(5.1.2)-1*
G04 #@! TF.CreationDate,2019-08-25T21:22:12-05:00*
G04 #@! TF.ProjectId,attiny-devboard,61747469-6e79-42d6-9465-76626f617264,rev?*
G04 #@! TF.SameCoordinates,Original*
G04 #@! TF.FileFunction,Legend,Top*
G04 #@! TF.FilePolarity,Positive*
%FSLAX46Y46*%
G04 Gerber Fmt 4.6, Leading zero omitted, Abs format (unit mm)*
G04 Created by KiCad (PCBNEW (5.1.2)-1) date 2019-08-25 21:22:12*
%MOMM*%
%LPD*%
G04 APERTURE LIST*
%ADD10C,0.120000*%
%ADD11C,0.150000*%
G04 APERTURE END LIST*
D10*
X144778800Y-83791048D02*
X144778800Y-84313552D01*
X143358800Y-83791048D02*
X143358800Y-84313552D01*
X124891400Y-94279600D02*
X127751400Y-94279600D01*
X127751400Y-94279600D02*
X127751400Y-92359600D01*
X127751400Y-92359600D02*
X124891400Y-92359600D01*
X113161900Y-93806900D02*
X113576900Y-93806900D01*
X113161900Y-93806900D02*
X113161900Y-95116900D01*
X113161900Y-95116900D02*
X114781900Y-95116900D01*
X114781900Y-94752798D02*
X114781900Y-95116900D01*
X114946900Y-92496900D02*
X114946900Y-93306900D01*
X114261900Y-92496900D02*
X114946900Y-92496900D01*
X112929600Y-86849900D02*
X113245107Y-86849900D01*
X115034093Y-86849900D02*
X115349600Y-86849900D01*
X114034093Y-86849900D02*
X114245107Y-86849900D01*
X112929600Y-84974900D02*
X112929600Y-86849900D01*
X115349600Y-83729900D02*
X115349600Y-86849900D01*
X112929600Y-84974900D02*
X113031324Y-84974900D01*
X115034093Y-83729900D02*
X115349600Y-83729900D01*
X112929600Y-84289900D02*
X112929600Y-83604900D01*
X112929600Y-83604900D02*
X113639600Y-83604900D01*
X120483152Y-94004200D02*
X119960648Y-94004200D01*
X120483152Y-92584200D02*
X119960648Y-92584200D01*
D11*
X132327200Y-82195300D02*
X132327200Y-82400300D01*
X137827200Y-82195300D02*
X137827200Y-82495300D01*
X137827200Y-87705300D02*
X137827200Y-87405300D01*
X132327200Y-87705300D02*
X132327200Y-87405300D01*
X132327200Y-82195300D02*
X137827200Y-82195300D01*
X132327200Y-87705300D02*
X137827200Y-87705300D01*
X132327200Y-82400300D02*
X130577200Y-82400300D01*
X146075942Y-84218966D02*
X146123561Y-84266585D01*
X146171180Y-84409442D01*
X146171180Y-84504680D01*
X146123561Y-84647538D01*
X146028323Y-84742776D01*
X145933085Y-84790395D01*
X145742609Y-84838014D01*
X145599752Y-84838014D01*
X145409276Y-84790395D01*
X145314038Y-84742776D01*
X145218800Y-84647538D01*
X145171180Y-84504680D01*
X145171180Y-84409442D01*
X145218800Y-84266585D01*
X145266419Y-84218966D01*
X146171180Y-83266585D02*
X146171180Y-83838014D01*
X146171180Y-83552300D02*
X145171180Y-83552300D01*
X145314038Y-83647538D01*
X145409276Y-83742776D01*
X145456895Y-83838014D01*
X125153304Y-95421980D02*
X125153304Y-94421980D01*
X125391400Y-94421980D01*
X125534257Y-94469600D01*
X125629495Y-94564838D01*
X125677114Y-94660076D01*
X125724733Y-94850552D01*
X125724733Y-94993409D01*
X125677114Y-95183885D01*
X125629495Y-95279123D01*
X125534257Y-95374361D01*
X125391400Y-95421980D01*
X125153304Y-95421980D01*
X126677114Y-95421980D02*
X126105685Y-95421980D01*
X126391400Y-95421980D02*
X126391400Y-94421980D01*
X126296161Y-94564838D01*
X126200923Y-94660076D01*
X126105685Y-94707695D01*
X113638566Y-90509280D02*
X113638566Y-91223566D01*
X113590947Y-91366423D01*
X113495709Y-91461661D01*
X113352852Y-91509280D01*
X113257614Y-91509280D01*
X114638566Y-91509280D02*
X114067138Y-91509280D01*
X114352852Y-91509280D02*
X114352852Y-90509280D01*
X114257614Y-90652138D01*
X114162376Y-90747376D01*
X114067138Y-90794995D01*
X113806266Y-82182280D02*
X113806266Y-82896566D01*
X113758647Y-83039423D01*
X113663409Y-83134661D01*
X113520552Y-83182280D01*
X113425314Y-83182280D01*
X114711028Y-82182280D02*
X114520552Y-82182280D01*
X114425314Y-82229900D01*
X114377695Y-82277519D01*
X114282457Y-82420376D01*
X114234838Y-82610852D01*
X114234838Y-82991804D01*
X114282457Y-83087042D01*
X114330076Y-83134661D01*
X114425314Y-83182280D01*
X114615790Y-83182280D01*
X114711028Y-83134661D01*
X114758647Y-83087042D01*
X114806266Y-82991804D01*
X114806266Y-82753709D01*
X114758647Y-82658471D01*
X114711028Y-82610852D01*
X114615790Y-82563233D01*
X114425314Y-82563233D01*
X114330076Y-82610852D01*
X114282457Y-82658471D01*
X114234838Y-82753709D01*
X120055233Y-95396580D02*
X119721900Y-94920390D01*
X119483804Y-95396580D02*
X119483804Y-94396580D01*
X119864757Y-94396580D01*
X119959995Y-94444200D01*
X120007614Y-94491819D01*
X120055233Y-94587057D01*
X120055233Y-94729914D01*
X120007614Y-94825152D01*
X119959995Y-94872771D01*
X119864757Y-94920390D01*
X119483804Y-94920390D01*
X121007614Y-95396580D02*
X120436185Y-95396580D01*
X120721900Y-95396580D02*
X120721900Y-94396580D01*
X120626661Y-94539438D01*
X120531423Y-94634676D01*
X120436185Y-94682295D01*
X134315295Y-80722680D02*
X134315295Y-81532204D01*
X134362914Y-81627442D01*
X134410533Y-81675061D01*
X134505771Y-81722680D01*
X134696247Y-81722680D01*
X134791485Y-81675061D01*
X134839104Y-81627442D01*
X134886723Y-81532204D01*
X134886723Y-80722680D01*
X135886723Y-81722680D02*
X135315295Y-81722680D01*
X135601009Y-81722680D02*
X135601009Y-80722680D01*
X135505771Y-80865538D01*
X135410533Y-80960776D01*
X135315295Y-81008395D01*
M02*
