G04 #@! TF.GenerationSoftware,KiCad,Pcbnew,(5.1.2)-1*
G04 #@! TF.CreationDate,2019-08-25T21:22:12-05:00*
G04 #@! TF.ProjectId,attiny-devboard,61747469-6e79-42d6-9465-76626f617264,rev?*
G04 #@! TF.SameCoordinates,Original*
G04 #@! TF.FileFunction,Soldermask,Top*
G04 #@! TF.FilePolarity,Negative*
%FSLAX46Y46*%
G04 Gerber Fmt 4.6, Leading zero omitted, Abs format (unit mm)*
G04 Created by KiCad (PCBNEW (5.1.2)-1) date 2019-08-25 21:22:12*
%MOMM*%
%LPD*%
G04 APERTURE LIST*
%ADD10C,0.100000*%
G04 APERTURE END LIST*
D10*
G36*
X114737900Y-93782900D02*
G01*
X114711925Y-93782900D01*
X114687539Y-93785302D01*
X114664090Y-93792415D01*
X114642479Y-93803966D01*
X114623537Y-93819511D01*
X114607992Y-93838453D01*
X114596441Y-93860064D01*
X114589328Y-93883513D01*
X114586926Y-93907899D01*
X114589328Y-93932285D01*
X114596441Y-93955734D01*
X114615296Y-93987192D01*
X114659594Y-94041169D01*
X114703794Y-94123861D01*
X114731013Y-94213588D01*
X114740203Y-94306900D01*
X114731013Y-94400212D01*
X114703794Y-94489939D01*
X114659594Y-94572631D01*
X114600111Y-94645111D01*
X114527631Y-94704594D01*
X114444939Y-94748794D01*
X114355212Y-94776013D01*
X114285284Y-94782900D01*
X114238516Y-94782900D01*
X114168588Y-94776013D01*
X114078861Y-94748794D01*
X113996169Y-94704594D01*
X113923689Y-94645111D01*
X113864206Y-94572631D01*
X113820006Y-94489939D01*
X113792787Y-94400212D01*
X113783597Y-94306900D01*
X113792787Y-94213588D01*
X113820006Y-94123861D01*
X113864206Y-94041169D01*
X113908506Y-93987189D01*
X113922114Y-93966823D01*
X113931492Y-93944184D01*
X113936272Y-93920151D01*
X113936272Y-93895647D01*
X113931492Y-93871614D01*
X113922114Y-93848975D01*
X113908500Y-93828600D01*
X113891173Y-93811273D01*
X113870799Y-93797660D01*
X113848160Y-93788282D01*
X113811875Y-93782900D01*
X113785900Y-93782900D01*
X113785900Y-92830900D01*
X114737900Y-92830900D01*
X114737900Y-93782900D01*
X114737900Y-93782900D01*
G37*
G36*
X127380074Y-92573065D02*
G01*
X127417767Y-92584499D01*
X127452503Y-92603066D01*
X127482948Y-92628052D01*
X127507934Y-92658497D01*
X127526501Y-92693233D01*
X127537935Y-92730926D01*
X127542400Y-92776261D01*
X127542400Y-93862939D01*
X127537935Y-93908274D01*
X127526501Y-93945967D01*
X127507934Y-93980703D01*
X127482948Y-94011148D01*
X127452503Y-94036134D01*
X127417767Y-94054701D01*
X127380074Y-94066135D01*
X127334739Y-94070600D01*
X126498061Y-94070600D01*
X126452726Y-94066135D01*
X126415033Y-94054701D01*
X126380297Y-94036134D01*
X126349852Y-94011148D01*
X126324866Y-93980703D01*
X126306299Y-93945967D01*
X126294865Y-93908274D01*
X126290400Y-93862939D01*
X126290400Y-92776261D01*
X126294865Y-92730926D01*
X126306299Y-92693233D01*
X126324866Y-92658497D01*
X126349852Y-92628052D01*
X126380297Y-92603066D01*
X126415033Y-92584499D01*
X126452726Y-92573065D01*
X126498061Y-92568600D01*
X127334739Y-92568600D01*
X127380074Y-92573065D01*
X127380074Y-92573065D01*
G37*
G36*
X125330074Y-92573065D02*
G01*
X125367767Y-92584499D01*
X125402503Y-92603066D01*
X125432948Y-92628052D01*
X125457934Y-92658497D01*
X125476501Y-92693233D01*
X125487935Y-92730926D01*
X125492400Y-92776261D01*
X125492400Y-93862939D01*
X125487935Y-93908274D01*
X125476501Y-93945967D01*
X125457934Y-93980703D01*
X125432948Y-94011148D01*
X125402503Y-94036134D01*
X125367767Y-94054701D01*
X125330074Y-94066135D01*
X125284739Y-94070600D01*
X124448061Y-94070600D01*
X124402726Y-94066135D01*
X124365033Y-94054701D01*
X124330297Y-94036134D01*
X124299852Y-94011148D01*
X124274866Y-93980703D01*
X124256299Y-93945967D01*
X124244865Y-93908274D01*
X124240400Y-93862939D01*
X124240400Y-92776261D01*
X124244865Y-92730926D01*
X124256299Y-92693233D01*
X124274866Y-92658497D01*
X124299852Y-92628052D01*
X124330297Y-92603066D01*
X124365033Y-92584499D01*
X124402726Y-92573065D01*
X124448061Y-92568600D01*
X125284739Y-92568600D01*
X125330074Y-92573065D01*
X125330074Y-92573065D01*
G37*
G36*
X119660574Y-92547665D02*
G01*
X119698267Y-92559099D01*
X119733003Y-92577666D01*
X119763448Y-92602652D01*
X119788434Y-92633097D01*
X119807001Y-92667833D01*
X119818435Y-92705526D01*
X119822900Y-92750861D01*
X119822900Y-93837539D01*
X119818435Y-93882874D01*
X119807001Y-93920567D01*
X119788434Y-93955303D01*
X119763448Y-93985748D01*
X119733003Y-94010734D01*
X119698267Y-94029301D01*
X119660574Y-94040735D01*
X119615239Y-94045200D01*
X118778561Y-94045200D01*
X118733226Y-94040735D01*
X118695533Y-94029301D01*
X118660797Y-94010734D01*
X118630352Y-93985748D01*
X118605366Y-93955303D01*
X118586799Y-93920567D01*
X118575365Y-93882874D01*
X118570900Y-93837539D01*
X118570900Y-92750861D01*
X118575365Y-92705526D01*
X118586799Y-92667833D01*
X118605366Y-92633097D01*
X118630352Y-92602652D01*
X118660797Y-92577666D01*
X118695533Y-92559099D01*
X118733226Y-92547665D01*
X118778561Y-92543200D01*
X119615239Y-92543200D01*
X119660574Y-92547665D01*
X119660574Y-92547665D01*
G37*
G36*
X121710574Y-92547665D02*
G01*
X121748267Y-92559099D01*
X121783003Y-92577666D01*
X121813448Y-92602652D01*
X121838434Y-92633097D01*
X121857001Y-92667833D01*
X121868435Y-92705526D01*
X121872900Y-92750861D01*
X121872900Y-93837539D01*
X121868435Y-93882874D01*
X121857001Y-93920567D01*
X121838434Y-93955303D01*
X121813448Y-93985748D01*
X121783003Y-94010734D01*
X121748267Y-94029301D01*
X121710574Y-94040735D01*
X121665239Y-94045200D01*
X120828561Y-94045200D01*
X120783226Y-94040735D01*
X120745533Y-94029301D01*
X120710797Y-94010734D01*
X120680352Y-93985748D01*
X120655366Y-93955303D01*
X120636799Y-93920567D01*
X120625365Y-93882874D01*
X120620900Y-93837539D01*
X120620900Y-92750861D01*
X120625365Y-92705526D01*
X120636799Y-92667833D01*
X120655366Y-92633097D01*
X120680352Y-92602652D01*
X120710797Y-92577666D01*
X120745533Y-92559099D01*
X120783226Y-92547665D01*
X120828561Y-92543200D01*
X121665239Y-92543200D01*
X121710574Y-92547665D01*
X121710574Y-92547665D01*
G37*
G36*
X139628200Y-87231300D02*
G01*
X137826200Y-87231300D01*
X137826200Y-86479300D01*
X139628200Y-86479300D01*
X139628200Y-87231300D01*
X139628200Y-87231300D01*
G37*
G36*
X132328200Y-87231300D02*
G01*
X130526200Y-87231300D01*
X130526200Y-86479300D01*
X132328200Y-86479300D01*
X132328200Y-87231300D01*
X132328200Y-87231300D01*
G37*
G36*
X114115600Y-83839875D02*
G01*
X114118002Y-83864261D01*
X114125115Y-83887710D01*
X114136666Y-83909321D01*
X114152211Y-83928263D01*
X114171153Y-83943808D01*
X114192764Y-83955359D01*
X114216213Y-83962472D01*
X114240599Y-83964874D01*
X114264985Y-83962472D01*
X114288434Y-83955359D01*
X114319892Y-83936504D01*
X114373869Y-83892206D01*
X114456561Y-83848006D01*
X114546288Y-83820787D01*
X114616216Y-83813900D01*
X114662984Y-83813900D01*
X114732912Y-83820787D01*
X114822639Y-83848006D01*
X114905331Y-83892206D01*
X114977811Y-83951689D01*
X115037294Y-84024169D01*
X115081494Y-84106861D01*
X115108713Y-84196588D01*
X115117903Y-84289900D01*
X115108713Y-84383212D01*
X115081494Y-84472939D01*
X115037294Y-84555631D01*
X114977811Y-84628111D01*
X114905331Y-84687594D01*
X114905326Y-84687597D01*
X114898408Y-84693274D01*
X114881081Y-84710601D01*
X114867467Y-84730975D01*
X114858090Y-84753614D01*
X114853309Y-84777647D01*
X114853309Y-84802151D01*
X114858089Y-84826185D01*
X114867466Y-84848824D01*
X114881080Y-84869198D01*
X114898408Y-84886526D01*
X114905326Y-84892203D01*
X114905331Y-84892206D01*
X114977811Y-84951689D01*
X115037294Y-85024169D01*
X115081494Y-85106861D01*
X115108713Y-85196588D01*
X115117903Y-85289900D01*
X115108713Y-85383212D01*
X115081494Y-85472939D01*
X115037294Y-85555631D01*
X114977811Y-85628111D01*
X114905331Y-85687594D01*
X114905326Y-85687597D01*
X114898408Y-85693274D01*
X114881081Y-85710601D01*
X114867467Y-85730975D01*
X114858090Y-85753614D01*
X114853309Y-85777647D01*
X114853309Y-85802151D01*
X114858089Y-85826185D01*
X114867466Y-85848824D01*
X114881080Y-85869198D01*
X114898408Y-85886526D01*
X114905326Y-85892203D01*
X114905331Y-85892206D01*
X114977811Y-85951689D01*
X115037294Y-86024169D01*
X115081494Y-86106861D01*
X115108713Y-86196588D01*
X115117903Y-86289900D01*
X115108713Y-86383212D01*
X115081494Y-86472939D01*
X115037294Y-86555631D01*
X114977811Y-86628111D01*
X114905331Y-86687594D01*
X114822639Y-86731794D01*
X114732912Y-86759013D01*
X114662984Y-86765900D01*
X114616216Y-86765900D01*
X114546288Y-86759013D01*
X114456561Y-86731794D01*
X114373869Y-86687594D01*
X114301389Y-86628111D01*
X114241906Y-86555631D01*
X114241903Y-86555626D01*
X114236226Y-86548708D01*
X114218899Y-86531381D01*
X114198525Y-86517767D01*
X114175886Y-86508390D01*
X114151853Y-86503609D01*
X114127349Y-86503609D01*
X114103315Y-86508389D01*
X114080676Y-86517766D01*
X114060302Y-86531380D01*
X114042974Y-86548708D01*
X114037297Y-86555626D01*
X114037294Y-86555631D01*
X113977811Y-86628111D01*
X113905331Y-86687594D01*
X113822639Y-86731794D01*
X113732912Y-86759013D01*
X113662984Y-86765900D01*
X113616216Y-86765900D01*
X113546288Y-86759013D01*
X113456561Y-86731794D01*
X113373869Y-86687594D01*
X113301389Y-86628111D01*
X113241906Y-86555631D01*
X113197706Y-86472939D01*
X113170487Y-86383212D01*
X113161297Y-86289900D01*
X113170487Y-86196588D01*
X113197706Y-86106861D01*
X113241906Y-86024169D01*
X113301389Y-85951689D01*
X113373869Y-85892206D01*
X113373874Y-85892203D01*
X113380792Y-85886526D01*
X113398119Y-85869199D01*
X113411733Y-85848825D01*
X113421110Y-85826186D01*
X113425891Y-85802153D01*
X113425891Y-85777649D01*
X113425891Y-85777647D01*
X113853309Y-85777647D01*
X113853309Y-85802151D01*
X113858089Y-85826185D01*
X113867466Y-85848824D01*
X113881080Y-85869198D01*
X113898408Y-85886526D01*
X113905326Y-85892203D01*
X113905331Y-85892206D01*
X113977811Y-85951689D01*
X114037294Y-86024169D01*
X114037297Y-86024174D01*
X114042974Y-86031092D01*
X114060301Y-86048419D01*
X114080675Y-86062033D01*
X114103314Y-86071410D01*
X114127347Y-86076191D01*
X114151851Y-86076191D01*
X114175885Y-86071411D01*
X114198524Y-86062034D01*
X114218898Y-86048420D01*
X114236226Y-86031092D01*
X114241903Y-86024174D01*
X114241906Y-86024169D01*
X114301389Y-85951689D01*
X114373869Y-85892206D01*
X114373874Y-85892203D01*
X114380792Y-85886526D01*
X114398119Y-85869199D01*
X114411733Y-85848825D01*
X114421110Y-85826186D01*
X114425891Y-85802153D01*
X114425891Y-85777649D01*
X114421111Y-85753615D01*
X114411734Y-85730976D01*
X114398120Y-85710602D01*
X114380792Y-85693274D01*
X114373874Y-85687597D01*
X114373869Y-85687594D01*
X114301389Y-85628111D01*
X114241906Y-85555631D01*
X114241903Y-85555626D01*
X114236226Y-85548708D01*
X114218899Y-85531381D01*
X114198525Y-85517767D01*
X114175886Y-85508390D01*
X114151853Y-85503609D01*
X114127349Y-85503609D01*
X114103315Y-85508389D01*
X114080676Y-85517766D01*
X114060302Y-85531380D01*
X114042974Y-85548708D01*
X114037297Y-85555626D01*
X114037294Y-85555631D01*
X113977811Y-85628111D01*
X113905331Y-85687594D01*
X113905326Y-85687597D01*
X113898408Y-85693274D01*
X113881081Y-85710601D01*
X113867467Y-85730975D01*
X113858090Y-85753614D01*
X113853309Y-85777647D01*
X113425891Y-85777647D01*
X113421111Y-85753615D01*
X113411734Y-85730976D01*
X113398120Y-85710602D01*
X113380792Y-85693274D01*
X113373874Y-85687597D01*
X113373869Y-85687594D01*
X113301389Y-85628111D01*
X113241906Y-85555631D01*
X113197706Y-85472939D01*
X113170487Y-85383212D01*
X113161297Y-85289900D01*
X113170487Y-85196588D01*
X113197706Y-85106861D01*
X113241906Y-85024169D01*
X113286206Y-84970189D01*
X113299814Y-84949823D01*
X113309192Y-84927184D01*
X113313972Y-84903151D01*
X113313972Y-84890899D01*
X113964626Y-84890899D01*
X113967028Y-84915285D01*
X113974141Y-84938734D01*
X113992996Y-84970192D01*
X114037294Y-85024169D01*
X114037297Y-85024174D01*
X114042974Y-85031092D01*
X114060301Y-85048419D01*
X114080676Y-85062033D01*
X114103314Y-85071411D01*
X114127348Y-85076191D01*
X114151852Y-85076191D01*
X114175885Y-85071411D01*
X114198524Y-85062033D01*
X114218898Y-85048420D01*
X114236226Y-85031092D01*
X114241903Y-85024174D01*
X114241906Y-85024169D01*
X114286206Y-84970189D01*
X114299814Y-84949823D01*
X114300522Y-84948114D01*
X114319892Y-84936504D01*
X114373869Y-84892206D01*
X114373874Y-84892203D01*
X114380792Y-84886526D01*
X114398119Y-84869199D01*
X114411733Y-84848824D01*
X114421111Y-84826186D01*
X114425891Y-84802152D01*
X114425891Y-84777648D01*
X114421111Y-84753615D01*
X114411733Y-84730976D01*
X114398120Y-84710602D01*
X114380792Y-84693274D01*
X114373874Y-84687597D01*
X114373869Y-84687594D01*
X114319889Y-84643294D01*
X114299523Y-84629686D01*
X114276884Y-84620308D01*
X114252851Y-84615528D01*
X114228347Y-84615528D01*
X114204313Y-84620308D01*
X114181675Y-84629686D01*
X114161300Y-84643300D01*
X114143973Y-84660627D01*
X114130360Y-84681001D01*
X114120982Y-84703640D01*
X114115600Y-84739925D01*
X114115600Y-84765900D01*
X114089625Y-84765900D01*
X114065239Y-84768302D01*
X114041790Y-84775415D01*
X114020179Y-84786966D01*
X114001237Y-84802511D01*
X113985692Y-84821453D01*
X113974141Y-84843064D01*
X113967028Y-84866513D01*
X113964626Y-84890899D01*
X113313972Y-84890899D01*
X113313972Y-84878647D01*
X113309192Y-84854614D01*
X113299814Y-84831975D01*
X113286200Y-84811600D01*
X113268873Y-84794273D01*
X113248499Y-84780660D01*
X113225860Y-84771282D01*
X113189575Y-84765900D01*
X113163600Y-84765900D01*
X113163600Y-83813900D01*
X114115600Y-83813900D01*
X114115600Y-83839875D01*
X114115600Y-83839875D01*
G37*
G36*
X132328200Y-85961300D02*
G01*
X130526200Y-85961300D01*
X130526200Y-85209300D01*
X132328200Y-85209300D01*
X132328200Y-85961300D01*
X132328200Y-85961300D01*
G37*
G36*
X139628200Y-85961300D02*
G01*
X137826200Y-85961300D01*
X137826200Y-85209300D01*
X139628200Y-85209300D01*
X139628200Y-85961300D01*
X139628200Y-85961300D01*
G37*
G36*
X144657474Y-84455765D02*
G01*
X144695167Y-84467199D01*
X144729903Y-84485766D01*
X144760348Y-84510752D01*
X144785334Y-84541197D01*
X144803901Y-84575933D01*
X144815335Y-84613626D01*
X144819800Y-84658961D01*
X144819800Y-85495639D01*
X144815335Y-85540974D01*
X144803901Y-85578667D01*
X144785334Y-85613403D01*
X144760348Y-85643848D01*
X144729903Y-85668834D01*
X144695167Y-85687401D01*
X144657474Y-85698835D01*
X144612139Y-85703300D01*
X143525461Y-85703300D01*
X143480126Y-85698835D01*
X143442433Y-85687401D01*
X143407697Y-85668834D01*
X143377252Y-85643848D01*
X143352266Y-85613403D01*
X143333699Y-85578667D01*
X143322265Y-85540974D01*
X143317800Y-85495639D01*
X143317800Y-84658961D01*
X143322265Y-84613626D01*
X143333699Y-84575933D01*
X143352266Y-84541197D01*
X143377252Y-84510752D01*
X143407697Y-84485766D01*
X143442433Y-84467199D01*
X143480126Y-84455765D01*
X143525461Y-84451300D01*
X144612139Y-84451300D01*
X144657474Y-84455765D01*
X144657474Y-84455765D01*
G37*
G36*
X132328200Y-84691300D02*
G01*
X130526200Y-84691300D01*
X130526200Y-83939300D01*
X132328200Y-83939300D01*
X132328200Y-84691300D01*
X132328200Y-84691300D01*
G37*
G36*
X139628200Y-84691300D02*
G01*
X137826200Y-84691300D01*
X137826200Y-83939300D01*
X139628200Y-83939300D01*
X139628200Y-84691300D01*
X139628200Y-84691300D01*
G37*
G36*
X144657474Y-82405765D02*
G01*
X144695167Y-82417199D01*
X144729903Y-82435766D01*
X144760348Y-82460752D01*
X144785334Y-82491197D01*
X144803901Y-82525933D01*
X144815335Y-82563626D01*
X144819800Y-82608961D01*
X144819800Y-83445639D01*
X144815335Y-83490974D01*
X144803901Y-83528667D01*
X144785334Y-83563403D01*
X144760348Y-83593848D01*
X144729903Y-83618834D01*
X144695167Y-83637401D01*
X144657474Y-83648835D01*
X144612139Y-83653300D01*
X143525461Y-83653300D01*
X143480126Y-83648835D01*
X143442433Y-83637401D01*
X143407697Y-83618834D01*
X143377252Y-83593848D01*
X143352266Y-83563403D01*
X143333699Y-83528667D01*
X143322265Y-83490974D01*
X143317800Y-83445639D01*
X143317800Y-82608961D01*
X143322265Y-82563626D01*
X143333699Y-82525933D01*
X143352266Y-82491197D01*
X143377252Y-82460752D01*
X143407697Y-82435766D01*
X143442433Y-82417199D01*
X143480126Y-82405765D01*
X143525461Y-82401300D01*
X144612139Y-82401300D01*
X144657474Y-82405765D01*
X144657474Y-82405765D01*
G37*
G36*
X132328200Y-83421300D02*
G01*
X130526200Y-83421300D01*
X130526200Y-82669300D01*
X132328200Y-82669300D01*
X132328200Y-83421300D01*
X132328200Y-83421300D01*
G37*
G36*
X139628200Y-83421300D02*
G01*
X137826200Y-83421300D01*
X137826200Y-82669300D01*
X139628200Y-82669300D01*
X139628200Y-83421300D01*
X139628200Y-83421300D01*
G37*
M02*
