G04 #@! TF.GenerationSoftware,KiCad,Pcbnew,(5.1.2)-1*
G04 #@! TF.CreationDate,2019-08-25T21:22:12-05:00*
G04 #@! TF.ProjectId,attiny-devboard,61747469-6e79-42d6-9465-76626f617264,rev?*
G04 #@! TF.SameCoordinates,Original*
G04 #@! TF.FileFunction,Copper,L2,Bot*
G04 #@! TF.FilePolarity,Positive*
%FSLAX46Y46*%
G04 Gerber Fmt 4.6, Leading zero omitted, Abs format (unit mm)*
G04 Created by KiCad (PCBNEW (5.1.2)-1) date 2019-08-25 21:22:12*
%MOMM*%
%LPD*%
G04 APERTURE LIST*
%ADD10R,0.850000X0.850000*%
%ADD11O,0.850000X0.850000*%
%ADD12C,0.800000*%
%ADD13C,0.250000*%
%ADD14C,0.254000*%
G04 APERTURE END LIST*
D10*
X114261900Y-93306900D03*
D11*
X114261900Y-94306900D03*
D10*
X113639600Y-84289900D03*
D11*
X114639600Y-84289900D03*
X113639600Y-85289900D03*
X114639600Y-85289900D03*
X113639600Y-86289900D03*
X114639600Y-86289900D03*
D12*
X144068800Y-81356200D03*
X119202200Y-91147900D03*
X118770400Y-84863940D03*
D13*
X118370401Y-85263939D02*
X118370401Y-85281719D01*
X118770400Y-84863940D02*
X118370401Y-85263939D01*
X118370401Y-85263939D02*
X118370401Y-85601759D01*
X118370401Y-85601759D02*
X115272820Y-88699340D01*
X115272820Y-88699340D02*
X113794540Y-88699340D01*
X113639600Y-88544400D02*
X113639600Y-86289900D01*
X113794540Y-88699340D02*
X113639600Y-88544400D01*
D14*
G36*
X146660001Y-98400000D02*
G01*
X109880000Y-98400000D01*
X109880000Y-94306900D01*
X113196772Y-94306900D01*
X113217238Y-94514696D01*
X113277850Y-94714507D01*
X113376278Y-94898653D01*
X113508741Y-95060059D01*
X113670147Y-95192522D01*
X113854293Y-95290950D01*
X114054104Y-95351562D01*
X114209834Y-95366900D01*
X114313966Y-95366900D01*
X114469696Y-95351562D01*
X114669507Y-95290950D01*
X114853653Y-95192522D01*
X115015059Y-95060059D01*
X115147522Y-94898653D01*
X115245950Y-94714507D01*
X115306562Y-94514696D01*
X115327028Y-94306900D01*
X115306562Y-94099104D01*
X115271835Y-93984624D01*
X115276402Y-93976080D01*
X115312712Y-93856382D01*
X115324972Y-93731900D01*
X115321900Y-93592650D01*
X115163150Y-93433900D01*
X114869033Y-93433900D01*
X114853653Y-93421278D01*
X114669507Y-93322850D01*
X114469696Y-93262238D01*
X114313966Y-93246900D01*
X114209834Y-93246900D01*
X114054104Y-93262238D01*
X113854293Y-93322850D01*
X113670147Y-93421278D01*
X113654767Y-93433900D01*
X113360650Y-93433900D01*
X113201900Y-93592650D01*
X113198828Y-93731900D01*
X113211088Y-93856382D01*
X113247398Y-93976080D01*
X113251965Y-93984624D01*
X113217238Y-94099104D01*
X113196772Y-94306900D01*
X109880000Y-94306900D01*
X109880000Y-92881900D01*
X113198828Y-92881900D01*
X113201900Y-93021150D01*
X113360650Y-93179900D01*
X114134900Y-93179900D01*
X114134900Y-92405650D01*
X114388900Y-92405650D01*
X114388900Y-93179900D01*
X115163150Y-93179900D01*
X115321900Y-93021150D01*
X115324972Y-92881900D01*
X115312712Y-92757418D01*
X115276402Y-92637720D01*
X115217437Y-92527406D01*
X115138085Y-92430715D01*
X115041394Y-92351363D01*
X114931080Y-92292398D01*
X114811382Y-92256088D01*
X114686900Y-92243828D01*
X114547650Y-92246900D01*
X114388900Y-92405650D01*
X114134900Y-92405650D01*
X113976150Y-92246900D01*
X113836900Y-92243828D01*
X113712418Y-92256088D01*
X113592720Y-92292398D01*
X113482406Y-92351363D01*
X113385715Y-92430715D01*
X113306363Y-92527406D01*
X113247398Y-92637720D01*
X113211088Y-92757418D01*
X113198828Y-92881900D01*
X109880000Y-92881900D01*
X109880000Y-85289900D01*
X112574472Y-85289900D01*
X112594938Y-85497696D01*
X112655550Y-85697507D01*
X112704935Y-85789900D01*
X112655550Y-85882293D01*
X112594938Y-86082104D01*
X112574472Y-86289900D01*
X112594938Y-86497696D01*
X112655550Y-86697507D01*
X112753978Y-86881653D01*
X112879601Y-87034724D01*
X112879600Y-88507077D01*
X112875924Y-88544400D01*
X112879600Y-88581722D01*
X112879600Y-88581732D01*
X112890597Y-88693385D01*
X112934054Y-88836646D01*
X113004626Y-88968676D01*
X113023428Y-88991586D01*
X113099599Y-89084401D01*
X113128603Y-89108204D01*
X113230736Y-89210337D01*
X113254539Y-89239341D01*
X113370264Y-89334314D01*
X113502293Y-89404886D01*
X113645554Y-89448343D01*
X113757207Y-89459340D01*
X113757216Y-89459340D01*
X113794539Y-89463016D01*
X113831862Y-89459340D01*
X115235498Y-89459340D01*
X115272820Y-89463016D01*
X115310142Y-89459340D01*
X115310153Y-89459340D01*
X115421806Y-89448343D01*
X115565067Y-89404886D01*
X115697096Y-89334314D01*
X115812821Y-89239341D01*
X115836624Y-89210337D01*
X118881404Y-86165558D01*
X118910402Y-86141760D01*
X118936733Y-86109676D01*
X119005375Y-86026036D01*
X119075947Y-85894006D01*
X119088558Y-85852431D01*
X119260656Y-85781145D01*
X119430174Y-85667877D01*
X119574337Y-85523714D01*
X119687605Y-85354196D01*
X119765626Y-85165838D01*
X119805400Y-84965879D01*
X119805400Y-84762001D01*
X119765626Y-84562042D01*
X119687605Y-84373684D01*
X119574337Y-84204166D01*
X119430174Y-84060003D01*
X119260656Y-83946735D01*
X119072298Y-83868714D01*
X118872339Y-83828940D01*
X118668461Y-83828940D01*
X118468502Y-83868714D01*
X118280144Y-83946735D01*
X118110626Y-84060003D01*
X117966463Y-84204166D01*
X117853195Y-84373684D01*
X117775174Y-84562042D01*
X117735400Y-84762001D01*
X117735400Y-84839714D01*
X117722450Y-84863941D01*
X117664855Y-84971693D01*
X117621398Y-85114954D01*
X117610401Y-85226607D01*
X117610401Y-85226617D01*
X117606725Y-85263939D01*
X117609118Y-85288240D01*
X114958019Y-87939340D01*
X114399600Y-87939340D01*
X114399600Y-87324793D01*
X114431804Y-87334562D01*
X114587534Y-87349900D01*
X114691666Y-87349900D01*
X114847396Y-87334562D01*
X115047207Y-87273950D01*
X115231353Y-87175522D01*
X115392759Y-87043059D01*
X115525222Y-86881653D01*
X115623650Y-86697507D01*
X115684262Y-86497696D01*
X115704728Y-86289900D01*
X115684262Y-86082104D01*
X115623650Y-85882293D01*
X115574265Y-85789900D01*
X115623650Y-85697507D01*
X115684262Y-85497696D01*
X115704728Y-85289900D01*
X115684262Y-85082104D01*
X115623650Y-84882293D01*
X115573298Y-84788091D01*
X115648472Y-84615150D01*
X115659140Y-84579962D01*
X115531857Y-84416900D01*
X115246733Y-84416900D01*
X115231353Y-84404278D01*
X115047207Y-84305850D01*
X114847396Y-84245238D01*
X114702672Y-84230984D01*
X114702672Y-83864900D01*
X114690412Y-83740418D01*
X114654102Y-83620720D01*
X114595137Y-83510406D01*
X114515785Y-83413715D01*
X114512600Y-83411101D01*
X114512600Y-83396279D01*
X114766600Y-83396279D01*
X114766600Y-84162900D01*
X115531857Y-84162900D01*
X115659140Y-83999838D01*
X115648472Y-83964650D01*
X115565634Y-83774078D01*
X115447209Y-83603329D01*
X115297748Y-83458964D01*
X115122994Y-83346532D01*
X114929664Y-83270353D01*
X114766600Y-83396279D01*
X114512600Y-83396279D01*
X114349536Y-83270353D01*
X114320642Y-83281738D01*
X114308780Y-83275398D01*
X114189082Y-83239088D01*
X114064600Y-83226828D01*
X113214600Y-83226828D01*
X113090118Y-83239088D01*
X112970420Y-83275398D01*
X112860106Y-83334363D01*
X112763415Y-83413715D01*
X112684063Y-83510406D01*
X112625098Y-83620720D01*
X112588788Y-83740418D01*
X112576528Y-83864900D01*
X112576528Y-84714900D01*
X112588788Y-84839382D01*
X112625098Y-84959080D01*
X112629665Y-84967624D01*
X112594938Y-85082104D01*
X112574472Y-85289900D01*
X109880000Y-85289900D01*
X109880000Y-79400000D01*
X146660000Y-79400000D01*
X146660001Y-98400000D01*
X146660001Y-98400000D01*
G37*
X146660001Y-98400000D02*
X109880000Y-98400000D01*
X109880000Y-94306900D01*
X113196772Y-94306900D01*
X113217238Y-94514696D01*
X113277850Y-94714507D01*
X113376278Y-94898653D01*
X113508741Y-95060059D01*
X113670147Y-95192522D01*
X113854293Y-95290950D01*
X114054104Y-95351562D01*
X114209834Y-95366900D01*
X114313966Y-95366900D01*
X114469696Y-95351562D01*
X114669507Y-95290950D01*
X114853653Y-95192522D01*
X115015059Y-95060059D01*
X115147522Y-94898653D01*
X115245950Y-94714507D01*
X115306562Y-94514696D01*
X115327028Y-94306900D01*
X115306562Y-94099104D01*
X115271835Y-93984624D01*
X115276402Y-93976080D01*
X115312712Y-93856382D01*
X115324972Y-93731900D01*
X115321900Y-93592650D01*
X115163150Y-93433900D01*
X114869033Y-93433900D01*
X114853653Y-93421278D01*
X114669507Y-93322850D01*
X114469696Y-93262238D01*
X114313966Y-93246900D01*
X114209834Y-93246900D01*
X114054104Y-93262238D01*
X113854293Y-93322850D01*
X113670147Y-93421278D01*
X113654767Y-93433900D01*
X113360650Y-93433900D01*
X113201900Y-93592650D01*
X113198828Y-93731900D01*
X113211088Y-93856382D01*
X113247398Y-93976080D01*
X113251965Y-93984624D01*
X113217238Y-94099104D01*
X113196772Y-94306900D01*
X109880000Y-94306900D01*
X109880000Y-92881900D01*
X113198828Y-92881900D01*
X113201900Y-93021150D01*
X113360650Y-93179900D01*
X114134900Y-93179900D01*
X114134900Y-92405650D01*
X114388900Y-92405650D01*
X114388900Y-93179900D01*
X115163150Y-93179900D01*
X115321900Y-93021150D01*
X115324972Y-92881900D01*
X115312712Y-92757418D01*
X115276402Y-92637720D01*
X115217437Y-92527406D01*
X115138085Y-92430715D01*
X115041394Y-92351363D01*
X114931080Y-92292398D01*
X114811382Y-92256088D01*
X114686900Y-92243828D01*
X114547650Y-92246900D01*
X114388900Y-92405650D01*
X114134900Y-92405650D01*
X113976150Y-92246900D01*
X113836900Y-92243828D01*
X113712418Y-92256088D01*
X113592720Y-92292398D01*
X113482406Y-92351363D01*
X113385715Y-92430715D01*
X113306363Y-92527406D01*
X113247398Y-92637720D01*
X113211088Y-92757418D01*
X113198828Y-92881900D01*
X109880000Y-92881900D01*
X109880000Y-85289900D01*
X112574472Y-85289900D01*
X112594938Y-85497696D01*
X112655550Y-85697507D01*
X112704935Y-85789900D01*
X112655550Y-85882293D01*
X112594938Y-86082104D01*
X112574472Y-86289900D01*
X112594938Y-86497696D01*
X112655550Y-86697507D01*
X112753978Y-86881653D01*
X112879601Y-87034724D01*
X112879600Y-88507077D01*
X112875924Y-88544400D01*
X112879600Y-88581722D01*
X112879600Y-88581732D01*
X112890597Y-88693385D01*
X112934054Y-88836646D01*
X113004626Y-88968676D01*
X113023428Y-88991586D01*
X113099599Y-89084401D01*
X113128603Y-89108204D01*
X113230736Y-89210337D01*
X113254539Y-89239341D01*
X113370264Y-89334314D01*
X113502293Y-89404886D01*
X113645554Y-89448343D01*
X113757207Y-89459340D01*
X113757216Y-89459340D01*
X113794539Y-89463016D01*
X113831862Y-89459340D01*
X115235498Y-89459340D01*
X115272820Y-89463016D01*
X115310142Y-89459340D01*
X115310153Y-89459340D01*
X115421806Y-89448343D01*
X115565067Y-89404886D01*
X115697096Y-89334314D01*
X115812821Y-89239341D01*
X115836624Y-89210337D01*
X118881404Y-86165558D01*
X118910402Y-86141760D01*
X118936733Y-86109676D01*
X119005375Y-86026036D01*
X119075947Y-85894006D01*
X119088558Y-85852431D01*
X119260656Y-85781145D01*
X119430174Y-85667877D01*
X119574337Y-85523714D01*
X119687605Y-85354196D01*
X119765626Y-85165838D01*
X119805400Y-84965879D01*
X119805400Y-84762001D01*
X119765626Y-84562042D01*
X119687605Y-84373684D01*
X119574337Y-84204166D01*
X119430174Y-84060003D01*
X119260656Y-83946735D01*
X119072298Y-83868714D01*
X118872339Y-83828940D01*
X118668461Y-83828940D01*
X118468502Y-83868714D01*
X118280144Y-83946735D01*
X118110626Y-84060003D01*
X117966463Y-84204166D01*
X117853195Y-84373684D01*
X117775174Y-84562042D01*
X117735400Y-84762001D01*
X117735400Y-84839714D01*
X117722450Y-84863941D01*
X117664855Y-84971693D01*
X117621398Y-85114954D01*
X117610401Y-85226607D01*
X117610401Y-85226617D01*
X117606725Y-85263939D01*
X117609118Y-85288240D01*
X114958019Y-87939340D01*
X114399600Y-87939340D01*
X114399600Y-87324793D01*
X114431804Y-87334562D01*
X114587534Y-87349900D01*
X114691666Y-87349900D01*
X114847396Y-87334562D01*
X115047207Y-87273950D01*
X115231353Y-87175522D01*
X115392759Y-87043059D01*
X115525222Y-86881653D01*
X115623650Y-86697507D01*
X115684262Y-86497696D01*
X115704728Y-86289900D01*
X115684262Y-86082104D01*
X115623650Y-85882293D01*
X115574265Y-85789900D01*
X115623650Y-85697507D01*
X115684262Y-85497696D01*
X115704728Y-85289900D01*
X115684262Y-85082104D01*
X115623650Y-84882293D01*
X115573298Y-84788091D01*
X115648472Y-84615150D01*
X115659140Y-84579962D01*
X115531857Y-84416900D01*
X115246733Y-84416900D01*
X115231353Y-84404278D01*
X115047207Y-84305850D01*
X114847396Y-84245238D01*
X114702672Y-84230984D01*
X114702672Y-83864900D01*
X114690412Y-83740418D01*
X114654102Y-83620720D01*
X114595137Y-83510406D01*
X114515785Y-83413715D01*
X114512600Y-83411101D01*
X114512600Y-83396279D01*
X114766600Y-83396279D01*
X114766600Y-84162900D01*
X115531857Y-84162900D01*
X115659140Y-83999838D01*
X115648472Y-83964650D01*
X115565634Y-83774078D01*
X115447209Y-83603329D01*
X115297748Y-83458964D01*
X115122994Y-83346532D01*
X114929664Y-83270353D01*
X114766600Y-83396279D01*
X114512600Y-83396279D01*
X114349536Y-83270353D01*
X114320642Y-83281738D01*
X114308780Y-83275398D01*
X114189082Y-83239088D01*
X114064600Y-83226828D01*
X113214600Y-83226828D01*
X113090118Y-83239088D01*
X112970420Y-83275398D01*
X112860106Y-83334363D01*
X112763415Y-83413715D01*
X112684063Y-83510406D01*
X112625098Y-83620720D01*
X112588788Y-83740418D01*
X112576528Y-83864900D01*
X112576528Y-84714900D01*
X112588788Y-84839382D01*
X112625098Y-84959080D01*
X112629665Y-84967624D01*
X112594938Y-85082104D01*
X112574472Y-85289900D01*
X109880000Y-85289900D01*
X109880000Y-79400000D01*
X146660000Y-79400000D01*
X146660001Y-98400000D01*
M02*
