G04 #@! TF.GenerationSoftware,KiCad,Pcbnew,(5.1.2)-1*
G04 #@! TF.CreationDate,2019-08-25T21:22:12-05:00*
G04 #@! TF.ProjectId,attiny-devboard,61747469-6e79-42d6-9465-76626f617264,rev?*
G04 #@! TF.SameCoordinates,Original*
G04 #@! TF.FileFunction,Copper,L1,Top*
G04 #@! TF.FilePolarity,Positive*
%FSLAX46Y46*%
G04 Gerber Fmt 4.6, Leading zero omitted, Abs format (unit mm)*
G04 Created by KiCad (PCBNEW (5.1.2)-1) date 2019-08-25 21:22:12*
%MOMM*%
%LPD*%
G04 APERTURE LIST*
%ADD10C,0.100000*%
%ADD11C,1.150000*%
%ADD12R,0.850000X0.850000*%
%ADD13O,0.850000X0.850000*%
%ADD14R,1.700000X0.650000*%
%ADD15C,0.800000*%
%ADD16C,0.250000*%
%ADD17C,0.254000*%
G04 APERTURE END LIST*
D10*
G36*
X144543305Y-82453504D02*
G01*
X144567573Y-82457104D01*
X144591372Y-82463065D01*
X144614471Y-82471330D01*
X144636650Y-82481820D01*
X144657693Y-82494432D01*
X144677399Y-82509047D01*
X144695577Y-82525523D01*
X144712053Y-82543701D01*
X144726668Y-82563407D01*
X144739280Y-82584450D01*
X144749770Y-82606629D01*
X144758035Y-82629728D01*
X144763996Y-82653527D01*
X144767596Y-82677795D01*
X144768800Y-82702299D01*
X144768800Y-83352301D01*
X144767596Y-83376805D01*
X144763996Y-83401073D01*
X144758035Y-83424872D01*
X144749770Y-83447971D01*
X144739280Y-83470150D01*
X144726668Y-83491193D01*
X144712053Y-83510899D01*
X144695577Y-83529077D01*
X144677399Y-83545553D01*
X144657693Y-83560168D01*
X144636650Y-83572780D01*
X144614471Y-83583270D01*
X144591372Y-83591535D01*
X144567573Y-83597496D01*
X144543305Y-83601096D01*
X144518801Y-83602300D01*
X143618799Y-83602300D01*
X143594295Y-83601096D01*
X143570027Y-83597496D01*
X143546228Y-83591535D01*
X143523129Y-83583270D01*
X143500950Y-83572780D01*
X143479907Y-83560168D01*
X143460201Y-83545553D01*
X143442023Y-83529077D01*
X143425547Y-83510899D01*
X143410932Y-83491193D01*
X143398320Y-83470150D01*
X143387830Y-83447971D01*
X143379565Y-83424872D01*
X143373604Y-83401073D01*
X143370004Y-83376805D01*
X143368800Y-83352301D01*
X143368800Y-82702299D01*
X143370004Y-82677795D01*
X143373604Y-82653527D01*
X143379565Y-82629728D01*
X143387830Y-82606629D01*
X143398320Y-82584450D01*
X143410932Y-82563407D01*
X143425547Y-82543701D01*
X143442023Y-82525523D01*
X143460201Y-82509047D01*
X143479907Y-82494432D01*
X143500950Y-82481820D01*
X143523129Y-82471330D01*
X143546228Y-82463065D01*
X143570027Y-82457104D01*
X143594295Y-82453504D01*
X143618799Y-82452300D01*
X144518801Y-82452300D01*
X144543305Y-82453504D01*
X144543305Y-82453504D01*
G37*
D11*
X144068800Y-83027300D03*
D10*
G36*
X144543305Y-84503504D02*
G01*
X144567573Y-84507104D01*
X144591372Y-84513065D01*
X144614471Y-84521330D01*
X144636650Y-84531820D01*
X144657693Y-84544432D01*
X144677399Y-84559047D01*
X144695577Y-84575523D01*
X144712053Y-84593701D01*
X144726668Y-84613407D01*
X144739280Y-84634450D01*
X144749770Y-84656629D01*
X144758035Y-84679728D01*
X144763996Y-84703527D01*
X144767596Y-84727795D01*
X144768800Y-84752299D01*
X144768800Y-85402301D01*
X144767596Y-85426805D01*
X144763996Y-85451073D01*
X144758035Y-85474872D01*
X144749770Y-85497971D01*
X144739280Y-85520150D01*
X144726668Y-85541193D01*
X144712053Y-85560899D01*
X144695577Y-85579077D01*
X144677399Y-85595553D01*
X144657693Y-85610168D01*
X144636650Y-85622780D01*
X144614471Y-85633270D01*
X144591372Y-85641535D01*
X144567573Y-85647496D01*
X144543305Y-85651096D01*
X144518801Y-85652300D01*
X143618799Y-85652300D01*
X143594295Y-85651096D01*
X143570027Y-85647496D01*
X143546228Y-85641535D01*
X143523129Y-85633270D01*
X143500950Y-85622780D01*
X143479907Y-85610168D01*
X143460201Y-85595553D01*
X143442023Y-85579077D01*
X143425547Y-85560899D01*
X143410932Y-85541193D01*
X143398320Y-85520150D01*
X143387830Y-85497971D01*
X143379565Y-85474872D01*
X143373604Y-85451073D01*
X143370004Y-85426805D01*
X143368800Y-85402301D01*
X143368800Y-84752299D01*
X143370004Y-84727795D01*
X143373604Y-84703527D01*
X143379565Y-84679728D01*
X143387830Y-84656629D01*
X143398320Y-84634450D01*
X143410932Y-84613407D01*
X143425547Y-84593701D01*
X143442023Y-84575523D01*
X143460201Y-84559047D01*
X143479907Y-84544432D01*
X143500950Y-84531820D01*
X143523129Y-84521330D01*
X143546228Y-84513065D01*
X143570027Y-84507104D01*
X143594295Y-84503504D01*
X143618799Y-84502300D01*
X144518801Y-84502300D01*
X144543305Y-84503504D01*
X144543305Y-84503504D01*
G37*
D11*
X144068800Y-85077300D03*
D10*
G36*
X127265905Y-92620804D02*
G01*
X127290173Y-92624404D01*
X127313972Y-92630365D01*
X127337071Y-92638630D01*
X127359250Y-92649120D01*
X127380293Y-92661732D01*
X127399999Y-92676347D01*
X127418177Y-92692823D01*
X127434653Y-92711001D01*
X127449268Y-92730707D01*
X127461880Y-92751750D01*
X127472370Y-92773929D01*
X127480635Y-92797028D01*
X127486596Y-92820827D01*
X127490196Y-92845095D01*
X127491400Y-92869599D01*
X127491400Y-93769601D01*
X127490196Y-93794105D01*
X127486596Y-93818373D01*
X127480635Y-93842172D01*
X127472370Y-93865271D01*
X127461880Y-93887450D01*
X127449268Y-93908493D01*
X127434653Y-93928199D01*
X127418177Y-93946377D01*
X127399999Y-93962853D01*
X127380293Y-93977468D01*
X127359250Y-93990080D01*
X127337071Y-94000570D01*
X127313972Y-94008835D01*
X127290173Y-94014796D01*
X127265905Y-94018396D01*
X127241401Y-94019600D01*
X126591399Y-94019600D01*
X126566895Y-94018396D01*
X126542627Y-94014796D01*
X126518828Y-94008835D01*
X126495729Y-94000570D01*
X126473550Y-93990080D01*
X126452507Y-93977468D01*
X126432801Y-93962853D01*
X126414623Y-93946377D01*
X126398147Y-93928199D01*
X126383532Y-93908493D01*
X126370920Y-93887450D01*
X126360430Y-93865271D01*
X126352165Y-93842172D01*
X126346204Y-93818373D01*
X126342604Y-93794105D01*
X126341400Y-93769601D01*
X126341400Y-92869599D01*
X126342604Y-92845095D01*
X126346204Y-92820827D01*
X126352165Y-92797028D01*
X126360430Y-92773929D01*
X126370920Y-92751750D01*
X126383532Y-92730707D01*
X126398147Y-92711001D01*
X126414623Y-92692823D01*
X126432801Y-92676347D01*
X126452507Y-92661732D01*
X126473550Y-92649120D01*
X126495729Y-92638630D01*
X126518828Y-92630365D01*
X126542627Y-92624404D01*
X126566895Y-92620804D01*
X126591399Y-92619600D01*
X127241401Y-92619600D01*
X127265905Y-92620804D01*
X127265905Y-92620804D01*
G37*
D11*
X126916400Y-93319600D03*
D10*
G36*
X125215905Y-92620804D02*
G01*
X125240173Y-92624404D01*
X125263972Y-92630365D01*
X125287071Y-92638630D01*
X125309250Y-92649120D01*
X125330293Y-92661732D01*
X125349999Y-92676347D01*
X125368177Y-92692823D01*
X125384653Y-92711001D01*
X125399268Y-92730707D01*
X125411880Y-92751750D01*
X125422370Y-92773929D01*
X125430635Y-92797028D01*
X125436596Y-92820827D01*
X125440196Y-92845095D01*
X125441400Y-92869599D01*
X125441400Y-93769601D01*
X125440196Y-93794105D01*
X125436596Y-93818373D01*
X125430635Y-93842172D01*
X125422370Y-93865271D01*
X125411880Y-93887450D01*
X125399268Y-93908493D01*
X125384653Y-93928199D01*
X125368177Y-93946377D01*
X125349999Y-93962853D01*
X125330293Y-93977468D01*
X125309250Y-93990080D01*
X125287071Y-94000570D01*
X125263972Y-94008835D01*
X125240173Y-94014796D01*
X125215905Y-94018396D01*
X125191401Y-94019600D01*
X124541399Y-94019600D01*
X124516895Y-94018396D01*
X124492627Y-94014796D01*
X124468828Y-94008835D01*
X124445729Y-94000570D01*
X124423550Y-93990080D01*
X124402507Y-93977468D01*
X124382801Y-93962853D01*
X124364623Y-93946377D01*
X124348147Y-93928199D01*
X124333532Y-93908493D01*
X124320920Y-93887450D01*
X124310430Y-93865271D01*
X124302165Y-93842172D01*
X124296204Y-93818373D01*
X124292604Y-93794105D01*
X124291400Y-93769601D01*
X124291400Y-92869599D01*
X124292604Y-92845095D01*
X124296204Y-92820827D01*
X124302165Y-92797028D01*
X124310430Y-92773929D01*
X124320920Y-92751750D01*
X124333532Y-92730707D01*
X124348147Y-92711001D01*
X124364623Y-92692823D01*
X124382801Y-92676347D01*
X124402507Y-92661732D01*
X124423550Y-92649120D01*
X124445729Y-92638630D01*
X124468828Y-92630365D01*
X124492627Y-92624404D01*
X124516895Y-92620804D01*
X124541399Y-92619600D01*
X125191401Y-92619600D01*
X125215905Y-92620804D01*
X125215905Y-92620804D01*
G37*
D11*
X124866400Y-93319600D03*
D12*
X114261900Y-93306900D03*
D13*
X114261900Y-94306900D03*
D12*
X113639600Y-84289900D03*
D13*
X114639600Y-84289900D03*
X113639600Y-85289900D03*
X114639600Y-85289900D03*
X113639600Y-86289900D03*
X114639600Y-86289900D03*
D10*
G36*
X121596405Y-92595404D02*
G01*
X121620673Y-92599004D01*
X121644472Y-92604965D01*
X121667571Y-92613230D01*
X121689750Y-92623720D01*
X121710793Y-92636332D01*
X121730499Y-92650947D01*
X121748677Y-92667423D01*
X121765153Y-92685601D01*
X121779768Y-92705307D01*
X121792380Y-92726350D01*
X121802870Y-92748529D01*
X121811135Y-92771628D01*
X121817096Y-92795427D01*
X121820696Y-92819695D01*
X121821900Y-92844199D01*
X121821900Y-93744201D01*
X121820696Y-93768705D01*
X121817096Y-93792973D01*
X121811135Y-93816772D01*
X121802870Y-93839871D01*
X121792380Y-93862050D01*
X121779768Y-93883093D01*
X121765153Y-93902799D01*
X121748677Y-93920977D01*
X121730499Y-93937453D01*
X121710793Y-93952068D01*
X121689750Y-93964680D01*
X121667571Y-93975170D01*
X121644472Y-93983435D01*
X121620673Y-93989396D01*
X121596405Y-93992996D01*
X121571901Y-93994200D01*
X120921899Y-93994200D01*
X120897395Y-93992996D01*
X120873127Y-93989396D01*
X120849328Y-93983435D01*
X120826229Y-93975170D01*
X120804050Y-93964680D01*
X120783007Y-93952068D01*
X120763301Y-93937453D01*
X120745123Y-93920977D01*
X120728647Y-93902799D01*
X120714032Y-93883093D01*
X120701420Y-93862050D01*
X120690930Y-93839871D01*
X120682665Y-93816772D01*
X120676704Y-93792973D01*
X120673104Y-93768705D01*
X120671900Y-93744201D01*
X120671900Y-92844199D01*
X120673104Y-92819695D01*
X120676704Y-92795427D01*
X120682665Y-92771628D01*
X120690930Y-92748529D01*
X120701420Y-92726350D01*
X120714032Y-92705307D01*
X120728647Y-92685601D01*
X120745123Y-92667423D01*
X120763301Y-92650947D01*
X120783007Y-92636332D01*
X120804050Y-92623720D01*
X120826229Y-92613230D01*
X120849328Y-92604965D01*
X120873127Y-92599004D01*
X120897395Y-92595404D01*
X120921899Y-92594200D01*
X121571901Y-92594200D01*
X121596405Y-92595404D01*
X121596405Y-92595404D01*
G37*
D11*
X121246900Y-93294200D03*
D10*
G36*
X119546405Y-92595404D02*
G01*
X119570673Y-92599004D01*
X119594472Y-92604965D01*
X119617571Y-92613230D01*
X119639750Y-92623720D01*
X119660793Y-92636332D01*
X119680499Y-92650947D01*
X119698677Y-92667423D01*
X119715153Y-92685601D01*
X119729768Y-92705307D01*
X119742380Y-92726350D01*
X119752870Y-92748529D01*
X119761135Y-92771628D01*
X119767096Y-92795427D01*
X119770696Y-92819695D01*
X119771900Y-92844199D01*
X119771900Y-93744201D01*
X119770696Y-93768705D01*
X119767096Y-93792973D01*
X119761135Y-93816772D01*
X119752870Y-93839871D01*
X119742380Y-93862050D01*
X119729768Y-93883093D01*
X119715153Y-93902799D01*
X119698677Y-93920977D01*
X119680499Y-93937453D01*
X119660793Y-93952068D01*
X119639750Y-93964680D01*
X119617571Y-93975170D01*
X119594472Y-93983435D01*
X119570673Y-93989396D01*
X119546405Y-93992996D01*
X119521901Y-93994200D01*
X118871899Y-93994200D01*
X118847395Y-93992996D01*
X118823127Y-93989396D01*
X118799328Y-93983435D01*
X118776229Y-93975170D01*
X118754050Y-93964680D01*
X118733007Y-93952068D01*
X118713301Y-93937453D01*
X118695123Y-93920977D01*
X118678647Y-93902799D01*
X118664032Y-93883093D01*
X118651420Y-93862050D01*
X118640930Y-93839871D01*
X118632665Y-93816772D01*
X118626704Y-93792973D01*
X118623104Y-93768705D01*
X118621900Y-93744201D01*
X118621900Y-92844199D01*
X118623104Y-92819695D01*
X118626704Y-92795427D01*
X118632665Y-92771628D01*
X118640930Y-92748529D01*
X118651420Y-92726350D01*
X118664032Y-92705307D01*
X118678647Y-92685601D01*
X118695123Y-92667423D01*
X118713301Y-92650947D01*
X118733007Y-92636332D01*
X118754050Y-92623720D01*
X118776229Y-92613230D01*
X118799328Y-92604965D01*
X118823127Y-92599004D01*
X118847395Y-92595404D01*
X118871899Y-92594200D01*
X119521901Y-92594200D01*
X119546405Y-92595404D01*
X119546405Y-92595404D01*
G37*
D11*
X119196900Y-93294200D03*
D14*
X131427200Y-83045300D03*
X131427200Y-84315300D03*
X131427200Y-85585300D03*
X131427200Y-86855300D03*
X138727200Y-86855300D03*
X138727200Y-85585300D03*
X138727200Y-84315300D03*
X138727200Y-83045300D03*
D15*
X144068800Y-81356200D03*
X119202200Y-91147900D03*
X118770400Y-84863940D03*
D16*
X144068800Y-83027300D02*
X144068800Y-81356200D01*
X138745200Y-83027300D02*
X138727200Y-83045300D01*
X144068800Y-83027300D02*
X138745200Y-83027300D01*
X119196900Y-93294200D02*
X119196900Y-91153200D01*
X119196900Y-91153200D02*
X119202200Y-91147900D01*
X124841000Y-93294200D02*
X124866400Y-93319600D01*
X121246900Y-93294200D02*
X124841000Y-93294200D01*
X113639600Y-83614900D02*
X113639600Y-84289900D01*
X114859201Y-82395299D02*
X113639600Y-83614900D01*
X132537201Y-82395299D02*
X114859201Y-82395299D01*
X138727200Y-85585300D02*
X135727202Y-85585300D01*
X135727202Y-85585300D02*
X132537201Y-82395299D01*
X113038560Y-85289900D02*
X113639600Y-85289900D01*
X112889599Y-85149899D02*
X113029600Y-85289900D01*
X112889599Y-83604899D02*
X112889599Y-85149899D01*
X114549208Y-81945290D02*
X112889599Y-83604899D01*
X132723602Y-81945290D02*
X114549208Y-81945290D01*
X135093612Y-84315300D02*
X132723602Y-81945290D01*
X113029600Y-85289900D02*
X113038560Y-85289900D01*
X138727200Y-84315300D02*
X135093612Y-84315300D01*
X138727200Y-86855300D02*
X138202200Y-86855300D01*
X115240640Y-85289900D02*
X114639600Y-85289900D01*
X119808320Y-89857580D02*
X115240640Y-85289900D01*
X136299920Y-89857580D02*
X119808320Y-89857580D01*
X138727200Y-86855300D02*
X138727200Y-87430300D01*
X138727200Y-87430300D02*
X136299920Y-89857580D01*
X131427200Y-83045300D02*
X120589040Y-83045300D01*
X120589040Y-83045300D02*
X118770400Y-84863940D01*
X113639600Y-86436200D02*
X113639600Y-86289900D01*
D17*
G36*
X146660001Y-98400000D02*
G01*
X109880000Y-98400000D01*
X109880000Y-94596962D01*
X113242360Y-94596962D01*
X113253028Y-94632150D01*
X113335866Y-94822722D01*
X113454291Y-94993471D01*
X113603752Y-95137836D01*
X113778506Y-95250268D01*
X113971836Y-95326447D01*
X114134900Y-95200521D01*
X114134900Y-94433900D01*
X114388900Y-94433900D01*
X114388900Y-95200521D01*
X114551964Y-95326447D01*
X114745294Y-95250268D01*
X114920048Y-95137836D01*
X115069509Y-94993471D01*
X115187934Y-94822722D01*
X115270772Y-94632150D01*
X115281440Y-94596962D01*
X115154157Y-94433900D01*
X114388900Y-94433900D01*
X114134900Y-94433900D01*
X113369643Y-94433900D01*
X113242360Y-94596962D01*
X109880000Y-94596962D01*
X109880000Y-92881900D01*
X113198828Y-92881900D01*
X113198828Y-93731900D01*
X113211088Y-93856382D01*
X113247398Y-93976080D01*
X113252068Y-93984817D01*
X113242360Y-94016838D01*
X113369643Y-94179900D01*
X113383101Y-94179900D01*
X113385715Y-94183085D01*
X113482406Y-94262437D01*
X113592720Y-94321402D01*
X113712418Y-94357712D01*
X113836900Y-94369972D01*
X114686900Y-94369972D01*
X114811382Y-94357712D01*
X114931080Y-94321402D01*
X115041394Y-94262437D01*
X115138085Y-94183085D01*
X115140699Y-94179900D01*
X115154157Y-94179900D01*
X115281440Y-94016838D01*
X115271732Y-93984817D01*
X115276402Y-93976080D01*
X115312712Y-93856382D01*
X115324972Y-93731900D01*
X115324972Y-92881900D01*
X115312712Y-92757418D01*
X115276402Y-92637720D01*
X115217437Y-92527406D01*
X115138085Y-92430715D01*
X115041394Y-92351363D01*
X114931080Y-92292398D01*
X114811382Y-92256088D01*
X114686900Y-92243828D01*
X113836900Y-92243828D01*
X113712418Y-92256088D01*
X113592720Y-92292398D01*
X113482406Y-92351363D01*
X113385715Y-92430715D01*
X113306363Y-92527406D01*
X113247398Y-92637720D01*
X113211088Y-92757418D01*
X113198828Y-92881900D01*
X109880000Y-92881900D01*
X109880000Y-83604899D01*
X112125923Y-83604899D01*
X112129599Y-83642222D01*
X112129600Y-85112567D01*
X112125923Y-85149899D01*
X112129600Y-85187232D01*
X112133803Y-85229900D01*
X112140597Y-85298884D01*
X112184053Y-85442145D01*
X112254625Y-85574175D01*
X112325800Y-85660901D01*
X112349599Y-85689900D01*
X112378597Y-85713698D01*
X112465796Y-85800897D01*
X112489599Y-85829901D01*
X112605324Y-85924874D01*
X112637428Y-85942034D01*
X112594938Y-86082104D01*
X112574472Y-86289900D01*
X112594938Y-86497696D01*
X112655550Y-86697507D01*
X112753978Y-86881653D01*
X112886441Y-87043059D01*
X113047847Y-87175522D01*
X113231993Y-87273950D01*
X113431804Y-87334562D01*
X113587534Y-87349900D01*
X113691666Y-87349900D01*
X113847396Y-87334562D01*
X114047207Y-87273950D01*
X114141282Y-87223666D01*
X114156206Y-87233268D01*
X114349536Y-87309447D01*
X114512600Y-87183521D01*
X114512600Y-86897033D01*
X114525222Y-86881653D01*
X114623650Y-86697507D01*
X114684262Y-86497696D01*
X114698889Y-86349189D01*
X114786600Y-86340550D01*
X114786600Y-86416900D01*
X114766600Y-86416900D01*
X114766600Y-87183521D01*
X114929664Y-87309447D01*
X115122994Y-87233268D01*
X115297748Y-87120836D01*
X115447209Y-86976471D01*
X115565634Y-86805722D01*
X115600788Y-86724849D01*
X119007324Y-90131386D01*
X118900302Y-90152674D01*
X118711944Y-90230695D01*
X118542426Y-90343963D01*
X118398263Y-90488126D01*
X118284995Y-90657644D01*
X118206974Y-90846002D01*
X118167200Y-91045961D01*
X118167200Y-91249839D01*
X118206974Y-91449798D01*
X118284995Y-91638156D01*
X118398263Y-91807674D01*
X118436901Y-91846312D01*
X118436901Y-92074586D01*
X118378513Y-92105795D01*
X118243938Y-92216238D01*
X118133495Y-92350813D01*
X118051428Y-92504349D01*
X118000892Y-92670945D01*
X117983828Y-92844199D01*
X117983828Y-93744201D01*
X118000892Y-93917455D01*
X118051428Y-94084051D01*
X118133495Y-94237587D01*
X118243938Y-94372162D01*
X118378513Y-94482605D01*
X118532049Y-94564672D01*
X118698645Y-94615208D01*
X118871899Y-94632272D01*
X119521901Y-94632272D01*
X119695155Y-94615208D01*
X119861751Y-94564672D01*
X120015287Y-94482605D01*
X120149862Y-94372162D01*
X120221900Y-94284384D01*
X120293938Y-94372162D01*
X120428513Y-94482605D01*
X120582049Y-94564672D01*
X120748645Y-94615208D01*
X120921899Y-94632272D01*
X121571901Y-94632272D01*
X121745155Y-94615208D01*
X121911751Y-94564672D01*
X122065287Y-94482605D01*
X122199862Y-94372162D01*
X122310305Y-94237587D01*
X122392372Y-94084051D01*
X122401427Y-94054200D01*
X123704168Y-94054200D01*
X123720928Y-94109451D01*
X123802995Y-94262987D01*
X123913438Y-94397562D01*
X124048013Y-94508005D01*
X124201549Y-94590072D01*
X124368145Y-94640608D01*
X124541399Y-94657672D01*
X125191401Y-94657672D01*
X125364655Y-94640608D01*
X125531251Y-94590072D01*
X125684787Y-94508005D01*
X125819362Y-94397562D01*
X125824742Y-94391006D01*
X125890215Y-94470785D01*
X125986906Y-94550137D01*
X126097220Y-94609102D01*
X126216918Y-94645412D01*
X126341400Y-94657672D01*
X126630650Y-94654600D01*
X126789400Y-94495850D01*
X126789400Y-93446600D01*
X127043400Y-93446600D01*
X127043400Y-94495850D01*
X127202150Y-94654600D01*
X127491400Y-94657672D01*
X127615882Y-94645412D01*
X127735580Y-94609102D01*
X127845894Y-94550137D01*
X127942585Y-94470785D01*
X128021937Y-94374094D01*
X128080902Y-94263780D01*
X128117212Y-94144082D01*
X128129472Y-94019600D01*
X128126400Y-93605350D01*
X127967650Y-93446600D01*
X127043400Y-93446600D01*
X126789400Y-93446600D01*
X126769400Y-93446600D01*
X126769400Y-93192600D01*
X126789400Y-93192600D01*
X126789400Y-92143350D01*
X127043400Y-92143350D01*
X127043400Y-93192600D01*
X127967650Y-93192600D01*
X128126400Y-93033850D01*
X128129472Y-92619600D01*
X128117212Y-92495118D01*
X128080902Y-92375420D01*
X128021937Y-92265106D01*
X127942585Y-92168415D01*
X127845894Y-92089063D01*
X127735580Y-92030098D01*
X127615882Y-91993788D01*
X127491400Y-91981528D01*
X127202150Y-91984600D01*
X127043400Y-92143350D01*
X126789400Y-92143350D01*
X126630650Y-91984600D01*
X126341400Y-91981528D01*
X126216918Y-91993788D01*
X126097220Y-92030098D01*
X125986906Y-92089063D01*
X125890215Y-92168415D01*
X125824742Y-92248194D01*
X125819362Y-92241638D01*
X125684787Y-92131195D01*
X125531251Y-92049128D01*
X125364655Y-91998592D01*
X125191401Y-91981528D01*
X124541399Y-91981528D01*
X124368145Y-91998592D01*
X124201549Y-92049128D01*
X124048013Y-92131195D01*
X123913438Y-92241638D01*
X123802995Y-92376213D01*
X123720928Y-92529749D01*
X123719578Y-92534200D01*
X122401427Y-92534200D01*
X122392372Y-92504349D01*
X122310305Y-92350813D01*
X122199862Y-92216238D01*
X122065287Y-92105795D01*
X121911751Y-92023728D01*
X121745155Y-91973192D01*
X121571901Y-91956128D01*
X120921899Y-91956128D01*
X120748645Y-91973192D01*
X120582049Y-92023728D01*
X120428513Y-92105795D01*
X120293938Y-92216238D01*
X120221900Y-92304016D01*
X120149862Y-92216238D01*
X120015287Y-92105795D01*
X119956900Y-92074586D01*
X119956900Y-91856911D01*
X120006137Y-91807674D01*
X120119405Y-91638156D01*
X120197426Y-91449798D01*
X120237200Y-91249839D01*
X120237200Y-91045961D01*
X120197426Y-90846002D01*
X120119405Y-90657644D01*
X120092635Y-90617580D01*
X136262598Y-90617580D01*
X136299920Y-90621256D01*
X136337242Y-90617580D01*
X136337253Y-90617580D01*
X136448906Y-90606583D01*
X136592167Y-90563126D01*
X136724196Y-90492554D01*
X136839921Y-90397581D01*
X136863724Y-90368577D01*
X139238203Y-87994099D01*
X139267201Y-87970301D01*
X139362174Y-87854576D01*
X139381526Y-87818372D01*
X139577200Y-87818372D01*
X139701682Y-87806112D01*
X139821380Y-87769802D01*
X139931694Y-87710837D01*
X140028385Y-87631485D01*
X140107737Y-87534794D01*
X140166702Y-87424480D01*
X140203012Y-87304782D01*
X140215272Y-87180300D01*
X140215272Y-86530300D01*
X140203012Y-86405818D01*
X140166702Y-86286120D01*
X140131520Y-86220300D01*
X140166702Y-86154480D01*
X140203012Y-86034782D01*
X140215272Y-85910300D01*
X140215272Y-85652300D01*
X142730728Y-85652300D01*
X142742988Y-85776782D01*
X142779298Y-85896480D01*
X142838263Y-86006794D01*
X142917615Y-86103485D01*
X143014306Y-86182837D01*
X143124620Y-86241802D01*
X143244318Y-86278112D01*
X143368800Y-86290372D01*
X143783050Y-86287300D01*
X143941800Y-86128550D01*
X143941800Y-85204300D01*
X144195800Y-85204300D01*
X144195800Y-86128550D01*
X144354550Y-86287300D01*
X144768800Y-86290372D01*
X144893282Y-86278112D01*
X145012980Y-86241802D01*
X145123294Y-86182837D01*
X145219985Y-86103485D01*
X145299337Y-86006794D01*
X145358302Y-85896480D01*
X145394612Y-85776782D01*
X145406872Y-85652300D01*
X145403800Y-85363050D01*
X145245050Y-85204300D01*
X144195800Y-85204300D01*
X143941800Y-85204300D01*
X142892550Y-85204300D01*
X142733800Y-85363050D01*
X142730728Y-85652300D01*
X140215272Y-85652300D01*
X140215272Y-85260300D01*
X140203012Y-85135818D01*
X140166702Y-85016120D01*
X140131520Y-84950300D01*
X140166702Y-84884480D01*
X140203012Y-84764782D01*
X140215272Y-84640300D01*
X140215272Y-83990300D01*
X140203012Y-83865818D01*
X140179194Y-83787300D01*
X142849186Y-83787300D01*
X142880395Y-83845687D01*
X142990838Y-83980262D01*
X142997394Y-83985642D01*
X142917615Y-84051115D01*
X142838263Y-84147806D01*
X142779298Y-84258120D01*
X142742988Y-84377818D01*
X142730728Y-84502300D01*
X142733800Y-84791550D01*
X142892550Y-84950300D01*
X143941800Y-84950300D01*
X143941800Y-84930300D01*
X144195800Y-84930300D01*
X144195800Y-84950300D01*
X145245050Y-84950300D01*
X145403800Y-84791550D01*
X145406872Y-84502300D01*
X145394612Y-84377818D01*
X145358302Y-84258120D01*
X145299337Y-84147806D01*
X145219985Y-84051115D01*
X145140206Y-83985642D01*
X145146762Y-83980262D01*
X145257205Y-83845687D01*
X145339272Y-83692151D01*
X145389808Y-83525555D01*
X145406872Y-83352301D01*
X145406872Y-82702299D01*
X145389808Y-82529045D01*
X145339272Y-82362449D01*
X145257205Y-82208913D01*
X145146762Y-82074338D01*
X145012187Y-81963895D01*
X144935075Y-81922678D01*
X144986005Y-81846456D01*
X145064026Y-81658098D01*
X145103800Y-81458139D01*
X145103800Y-81254261D01*
X145064026Y-81054302D01*
X144986005Y-80865944D01*
X144872737Y-80696426D01*
X144728574Y-80552263D01*
X144559056Y-80438995D01*
X144370698Y-80360974D01*
X144170739Y-80321200D01*
X143966861Y-80321200D01*
X143766902Y-80360974D01*
X143578544Y-80438995D01*
X143409026Y-80552263D01*
X143264863Y-80696426D01*
X143151595Y-80865944D01*
X143073574Y-81054302D01*
X143033800Y-81254261D01*
X143033800Y-81458139D01*
X143073574Y-81658098D01*
X143151595Y-81846456D01*
X143202525Y-81922678D01*
X143125413Y-81963895D01*
X142990838Y-82074338D01*
X142880395Y-82208913D01*
X142849186Y-82267300D01*
X140026173Y-82267300D01*
X139931694Y-82189763D01*
X139821380Y-82130798D01*
X139701682Y-82094488D01*
X139577200Y-82082228D01*
X137877200Y-82082228D01*
X137752718Y-82094488D01*
X137633020Y-82130798D01*
X137522706Y-82189763D01*
X137426015Y-82269115D01*
X137346663Y-82365806D01*
X137287698Y-82476120D01*
X137251388Y-82595818D01*
X137239128Y-82720300D01*
X137239128Y-83370300D01*
X137251388Y-83494782D01*
X137269746Y-83555300D01*
X135408414Y-83555300D01*
X133287406Y-81434293D01*
X133263603Y-81405289D01*
X133147878Y-81310316D01*
X133015849Y-81239744D01*
X132872588Y-81196287D01*
X132760935Y-81185290D01*
X132760924Y-81185290D01*
X132723602Y-81181614D01*
X132686280Y-81185290D01*
X114586541Y-81185290D01*
X114549208Y-81181613D01*
X114511875Y-81185290D01*
X114400222Y-81196287D01*
X114256961Y-81239744D01*
X114124932Y-81310316D01*
X114009207Y-81405289D01*
X113985409Y-81434287D01*
X112378602Y-83041095D01*
X112349598Y-83064898D01*
X112317592Y-83103898D01*
X112254625Y-83180623D01*
X112187689Y-83305850D01*
X112184053Y-83312653D01*
X112140596Y-83455914D01*
X112129599Y-83567567D01*
X112129599Y-83567577D01*
X112125923Y-83604899D01*
X109880000Y-83604899D01*
X109880000Y-79400000D01*
X146660000Y-79400000D01*
X146660001Y-98400000D01*
X146660001Y-98400000D01*
G37*
X146660001Y-98400000D02*
X109880000Y-98400000D01*
X109880000Y-94596962D01*
X113242360Y-94596962D01*
X113253028Y-94632150D01*
X113335866Y-94822722D01*
X113454291Y-94993471D01*
X113603752Y-95137836D01*
X113778506Y-95250268D01*
X113971836Y-95326447D01*
X114134900Y-95200521D01*
X114134900Y-94433900D01*
X114388900Y-94433900D01*
X114388900Y-95200521D01*
X114551964Y-95326447D01*
X114745294Y-95250268D01*
X114920048Y-95137836D01*
X115069509Y-94993471D01*
X115187934Y-94822722D01*
X115270772Y-94632150D01*
X115281440Y-94596962D01*
X115154157Y-94433900D01*
X114388900Y-94433900D01*
X114134900Y-94433900D01*
X113369643Y-94433900D01*
X113242360Y-94596962D01*
X109880000Y-94596962D01*
X109880000Y-92881900D01*
X113198828Y-92881900D01*
X113198828Y-93731900D01*
X113211088Y-93856382D01*
X113247398Y-93976080D01*
X113252068Y-93984817D01*
X113242360Y-94016838D01*
X113369643Y-94179900D01*
X113383101Y-94179900D01*
X113385715Y-94183085D01*
X113482406Y-94262437D01*
X113592720Y-94321402D01*
X113712418Y-94357712D01*
X113836900Y-94369972D01*
X114686900Y-94369972D01*
X114811382Y-94357712D01*
X114931080Y-94321402D01*
X115041394Y-94262437D01*
X115138085Y-94183085D01*
X115140699Y-94179900D01*
X115154157Y-94179900D01*
X115281440Y-94016838D01*
X115271732Y-93984817D01*
X115276402Y-93976080D01*
X115312712Y-93856382D01*
X115324972Y-93731900D01*
X115324972Y-92881900D01*
X115312712Y-92757418D01*
X115276402Y-92637720D01*
X115217437Y-92527406D01*
X115138085Y-92430715D01*
X115041394Y-92351363D01*
X114931080Y-92292398D01*
X114811382Y-92256088D01*
X114686900Y-92243828D01*
X113836900Y-92243828D01*
X113712418Y-92256088D01*
X113592720Y-92292398D01*
X113482406Y-92351363D01*
X113385715Y-92430715D01*
X113306363Y-92527406D01*
X113247398Y-92637720D01*
X113211088Y-92757418D01*
X113198828Y-92881900D01*
X109880000Y-92881900D01*
X109880000Y-83604899D01*
X112125923Y-83604899D01*
X112129599Y-83642222D01*
X112129600Y-85112567D01*
X112125923Y-85149899D01*
X112129600Y-85187232D01*
X112133803Y-85229900D01*
X112140597Y-85298884D01*
X112184053Y-85442145D01*
X112254625Y-85574175D01*
X112325800Y-85660901D01*
X112349599Y-85689900D01*
X112378597Y-85713698D01*
X112465796Y-85800897D01*
X112489599Y-85829901D01*
X112605324Y-85924874D01*
X112637428Y-85942034D01*
X112594938Y-86082104D01*
X112574472Y-86289900D01*
X112594938Y-86497696D01*
X112655550Y-86697507D01*
X112753978Y-86881653D01*
X112886441Y-87043059D01*
X113047847Y-87175522D01*
X113231993Y-87273950D01*
X113431804Y-87334562D01*
X113587534Y-87349900D01*
X113691666Y-87349900D01*
X113847396Y-87334562D01*
X114047207Y-87273950D01*
X114141282Y-87223666D01*
X114156206Y-87233268D01*
X114349536Y-87309447D01*
X114512600Y-87183521D01*
X114512600Y-86897033D01*
X114525222Y-86881653D01*
X114623650Y-86697507D01*
X114684262Y-86497696D01*
X114698889Y-86349189D01*
X114786600Y-86340550D01*
X114786600Y-86416900D01*
X114766600Y-86416900D01*
X114766600Y-87183521D01*
X114929664Y-87309447D01*
X115122994Y-87233268D01*
X115297748Y-87120836D01*
X115447209Y-86976471D01*
X115565634Y-86805722D01*
X115600788Y-86724849D01*
X119007324Y-90131386D01*
X118900302Y-90152674D01*
X118711944Y-90230695D01*
X118542426Y-90343963D01*
X118398263Y-90488126D01*
X118284995Y-90657644D01*
X118206974Y-90846002D01*
X118167200Y-91045961D01*
X118167200Y-91249839D01*
X118206974Y-91449798D01*
X118284995Y-91638156D01*
X118398263Y-91807674D01*
X118436901Y-91846312D01*
X118436901Y-92074586D01*
X118378513Y-92105795D01*
X118243938Y-92216238D01*
X118133495Y-92350813D01*
X118051428Y-92504349D01*
X118000892Y-92670945D01*
X117983828Y-92844199D01*
X117983828Y-93744201D01*
X118000892Y-93917455D01*
X118051428Y-94084051D01*
X118133495Y-94237587D01*
X118243938Y-94372162D01*
X118378513Y-94482605D01*
X118532049Y-94564672D01*
X118698645Y-94615208D01*
X118871899Y-94632272D01*
X119521901Y-94632272D01*
X119695155Y-94615208D01*
X119861751Y-94564672D01*
X120015287Y-94482605D01*
X120149862Y-94372162D01*
X120221900Y-94284384D01*
X120293938Y-94372162D01*
X120428513Y-94482605D01*
X120582049Y-94564672D01*
X120748645Y-94615208D01*
X120921899Y-94632272D01*
X121571901Y-94632272D01*
X121745155Y-94615208D01*
X121911751Y-94564672D01*
X122065287Y-94482605D01*
X122199862Y-94372162D01*
X122310305Y-94237587D01*
X122392372Y-94084051D01*
X122401427Y-94054200D01*
X123704168Y-94054200D01*
X123720928Y-94109451D01*
X123802995Y-94262987D01*
X123913438Y-94397562D01*
X124048013Y-94508005D01*
X124201549Y-94590072D01*
X124368145Y-94640608D01*
X124541399Y-94657672D01*
X125191401Y-94657672D01*
X125364655Y-94640608D01*
X125531251Y-94590072D01*
X125684787Y-94508005D01*
X125819362Y-94397562D01*
X125824742Y-94391006D01*
X125890215Y-94470785D01*
X125986906Y-94550137D01*
X126097220Y-94609102D01*
X126216918Y-94645412D01*
X126341400Y-94657672D01*
X126630650Y-94654600D01*
X126789400Y-94495850D01*
X126789400Y-93446600D01*
X127043400Y-93446600D01*
X127043400Y-94495850D01*
X127202150Y-94654600D01*
X127491400Y-94657672D01*
X127615882Y-94645412D01*
X127735580Y-94609102D01*
X127845894Y-94550137D01*
X127942585Y-94470785D01*
X128021937Y-94374094D01*
X128080902Y-94263780D01*
X128117212Y-94144082D01*
X128129472Y-94019600D01*
X128126400Y-93605350D01*
X127967650Y-93446600D01*
X127043400Y-93446600D01*
X126789400Y-93446600D01*
X126769400Y-93446600D01*
X126769400Y-93192600D01*
X126789400Y-93192600D01*
X126789400Y-92143350D01*
X127043400Y-92143350D01*
X127043400Y-93192600D01*
X127967650Y-93192600D01*
X128126400Y-93033850D01*
X128129472Y-92619600D01*
X128117212Y-92495118D01*
X128080902Y-92375420D01*
X128021937Y-92265106D01*
X127942585Y-92168415D01*
X127845894Y-92089063D01*
X127735580Y-92030098D01*
X127615882Y-91993788D01*
X127491400Y-91981528D01*
X127202150Y-91984600D01*
X127043400Y-92143350D01*
X126789400Y-92143350D01*
X126630650Y-91984600D01*
X126341400Y-91981528D01*
X126216918Y-91993788D01*
X126097220Y-92030098D01*
X125986906Y-92089063D01*
X125890215Y-92168415D01*
X125824742Y-92248194D01*
X125819362Y-92241638D01*
X125684787Y-92131195D01*
X125531251Y-92049128D01*
X125364655Y-91998592D01*
X125191401Y-91981528D01*
X124541399Y-91981528D01*
X124368145Y-91998592D01*
X124201549Y-92049128D01*
X124048013Y-92131195D01*
X123913438Y-92241638D01*
X123802995Y-92376213D01*
X123720928Y-92529749D01*
X123719578Y-92534200D01*
X122401427Y-92534200D01*
X122392372Y-92504349D01*
X122310305Y-92350813D01*
X122199862Y-92216238D01*
X122065287Y-92105795D01*
X121911751Y-92023728D01*
X121745155Y-91973192D01*
X121571901Y-91956128D01*
X120921899Y-91956128D01*
X120748645Y-91973192D01*
X120582049Y-92023728D01*
X120428513Y-92105795D01*
X120293938Y-92216238D01*
X120221900Y-92304016D01*
X120149862Y-92216238D01*
X120015287Y-92105795D01*
X119956900Y-92074586D01*
X119956900Y-91856911D01*
X120006137Y-91807674D01*
X120119405Y-91638156D01*
X120197426Y-91449798D01*
X120237200Y-91249839D01*
X120237200Y-91045961D01*
X120197426Y-90846002D01*
X120119405Y-90657644D01*
X120092635Y-90617580D01*
X136262598Y-90617580D01*
X136299920Y-90621256D01*
X136337242Y-90617580D01*
X136337253Y-90617580D01*
X136448906Y-90606583D01*
X136592167Y-90563126D01*
X136724196Y-90492554D01*
X136839921Y-90397581D01*
X136863724Y-90368577D01*
X139238203Y-87994099D01*
X139267201Y-87970301D01*
X139362174Y-87854576D01*
X139381526Y-87818372D01*
X139577200Y-87818372D01*
X139701682Y-87806112D01*
X139821380Y-87769802D01*
X139931694Y-87710837D01*
X140028385Y-87631485D01*
X140107737Y-87534794D01*
X140166702Y-87424480D01*
X140203012Y-87304782D01*
X140215272Y-87180300D01*
X140215272Y-86530300D01*
X140203012Y-86405818D01*
X140166702Y-86286120D01*
X140131520Y-86220300D01*
X140166702Y-86154480D01*
X140203012Y-86034782D01*
X140215272Y-85910300D01*
X140215272Y-85652300D01*
X142730728Y-85652300D01*
X142742988Y-85776782D01*
X142779298Y-85896480D01*
X142838263Y-86006794D01*
X142917615Y-86103485D01*
X143014306Y-86182837D01*
X143124620Y-86241802D01*
X143244318Y-86278112D01*
X143368800Y-86290372D01*
X143783050Y-86287300D01*
X143941800Y-86128550D01*
X143941800Y-85204300D01*
X144195800Y-85204300D01*
X144195800Y-86128550D01*
X144354550Y-86287300D01*
X144768800Y-86290372D01*
X144893282Y-86278112D01*
X145012980Y-86241802D01*
X145123294Y-86182837D01*
X145219985Y-86103485D01*
X145299337Y-86006794D01*
X145358302Y-85896480D01*
X145394612Y-85776782D01*
X145406872Y-85652300D01*
X145403800Y-85363050D01*
X145245050Y-85204300D01*
X144195800Y-85204300D01*
X143941800Y-85204300D01*
X142892550Y-85204300D01*
X142733800Y-85363050D01*
X142730728Y-85652300D01*
X140215272Y-85652300D01*
X140215272Y-85260300D01*
X140203012Y-85135818D01*
X140166702Y-85016120D01*
X140131520Y-84950300D01*
X140166702Y-84884480D01*
X140203012Y-84764782D01*
X140215272Y-84640300D01*
X140215272Y-83990300D01*
X140203012Y-83865818D01*
X140179194Y-83787300D01*
X142849186Y-83787300D01*
X142880395Y-83845687D01*
X142990838Y-83980262D01*
X142997394Y-83985642D01*
X142917615Y-84051115D01*
X142838263Y-84147806D01*
X142779298Y-84258120D01*
X142742988Y-84377818D01*
X142730728Y-84502300D01*
X142733800Y-84791550D01*
X142892550Y-84950300D01*
X143941800Y-84950300D01*
X143941800Y-84930300D01*
X144195800Y-84930300D01*
X144195800Y-84950300D01*
X145245050Y-84950300D01*
X145403800Y-84791550D01*
X145406872Y-84502300D01*
X145394612Y-84377818D01*
X145358302Y-84258120D01*
X145299337Y-84147806D01*
X145219985Y-84051115D01*
X145140206Y-83985642D01*
X145146762Y-83980262D01*
X145257205Y-83845687D01*
X145339272Y-83692151D01*
X145389808Y-83525555D01*
X145406872Y-83352301D01*
X145406872Y-82702299D01*
X145389808Y-82529045D01*
X145339272Y-82362449D01*
X145257205Y-82208913D01*
X145146762Y-82074338D01*
X145012187Y-81963895D01*
X144935075Y-81922678D01*
X144986005Y-81846456D01*
X145064026Y-81658098D01*
X145103800Y-81458139D01*
X145103800Y-81254261D01*
X145064026Y-81054302D01*
X144986005Y-80865944D01*
X144872737Y-80696426D01*
X144728574Y-80552263D01*
X144559056Y-80438995D01*
X144370698Y-80360974D01*
X144170739Y-80321200D01*
X143966861Y-80321200D01*
X143766902Y-80360974D01*
X143578544Y-80438995D01*
X143409026Y-80552263D01*
X143264863Y-80696426D01*
X143151595Y-80865944D01*
X143073574Y-81054302D01*
X143033800Y-81254261D01*
X143033800Y-81458139D01*
X143073574Y-81658098D01*
X143151595Y-81846456D01*
X143202525Y-81922678D01*
X143125413Y-81963895D01*
X142990838Y-82074338D01*
X142880395Y-82208913D01*
X142849186Y-82267300D01*
X140026173Y-82267300D01*
X139931694Y-82189763D01*
X139821380Y-82130798D01*
X139701682Y-82094488D01*
X139577200Y-82082228D01*
X137877200Y-82082228D01*
X137752718Y-82094488D01*
X137633020Y-82130798D01*
X137522706Y-82189763D01*
X137426015Y-82269115D01*
X137346663Y-82365806D01*
X137287698Y-82476120D01*
X137251388Y-82595818D01*
X137239128Y-82720300D01*
X137239128Y-83370300D01*
X137251388Y-83494782D01*
X137269746Y-83555300D01*
X135408414Y-83555300D01*
X133287406Y-81434293D01*
X133263603Y-81405289D01*
X133147878Y-81310316D01*
X133015849Y-81239744D01*
X132872588Y-81196287D01*
X132760935Y-81185290D01*
X132760924Y-81185290D01*
X132723602Y-81181614D01*
X132686280Y-81185290D01*
X114586541Y-81185290D01*
X114549208Y-81181613D01*
X114511875Y-81185290D01*
X114400222Y-81196287D01*
X114256961Y-81239744D01*
X114124932Y-81310316D01*
X114009207Y-81405289D01*
X113985409Y-81434287D01*
X112378602Y-83041095D01*
X112349598Y-83064898D01*
X112317592Y-83103898D01*
X112254625Y-83180623D01*
X112187689Y-83305850D01*
X112184053Y-83312653D01*
X112140596Y-83455914D01*
X112129599Y-83567567D01*
X112129599Y-83567577D01*
X112125923Y-83604899D01*
X109880000Y-83604899D01*
X109880000Y-79400000D01*
X146660000Y-79400000D01*
X146660001Y-98400000D01*
G36*
X118730599Y-83828940D02*
G01*
X118668461Y-83828940D01*
X118468502Y-83868714D01*
X118280144Y-83946735D01*
X118110626Y-84060003D01*
X117966463Y-84204166D01*
X117853195Y-84373684D01*
X117775174Y-84562042D01*
X117735400Y-84762001D01*
X117735400Y-84965879D01*
X117775174Y-85165838D01*
X117853195Y-85354196D01*
X117966463Y-85523714D01*
X118110626Y-85667877D01*
X118280144Y-85781145D01*
X118468502Y-85859166D01*
X118668461Y-85898940D01*
X118872339Y-85898940D01*
X119072298Y-85859166D01*
X119260656Y-85781145D01*
X119430174Y-85667877D01*
X119574337Y-85523714D01*
X119687605Y-85354196D01*
X119765626Y-85165838D01*
X119805400Y-84965879D01*
X119805400Y-84903741D01*
X120903842Y-83805300D01*
X129969746Y-83805300D01*
X129951388Y-83865818D01*
X129939128Y-83990300D01*
X129939128Y-84640300D01*
X129951388Y-84764782D01*
X129987698Y-84884480D01*
X130022880Y-84950300D01*
X129987698Y-85016120D01*
X129951388Y-85135818D01*
X129939128Y-85260300D01*
X129939128Y-85910300D01*
X129951388Y-86034782D01*
X129987698Y-86154480D01*
X130022880Y-86220300D01*
X129987698Y-86286120D01*
X129951388Y-86405818D01*
X129939128Y-86530300D01*
X129942200Y-86569550D01*
X130100950Y-86728300D01*
X131300200Y-86728300D01*
X131300200Y-86708300D01*
X131554200Y-86708300D01*
X131554200Y-86728300D01*
X132753450Y-86728300D01*
X132912200Y-86569550D01*
X132915272Y-86530300D01*
X132903012Y-86405818D01*
X132866702Y-86286120D01*
X132831520Y-86220300D01*
X132866702Y-86154480D01*
X132903012Y-86034782D01*
X132915272Y-85910300D01*
X132915272Y-85260300D01*
X132903012Y-85135818D01*
X132866702Y-85016120D01*
X132831520Y-84950300D01*
X132866702Y-84884480D01*
X132903012Y-84764782D01*
X132915272Y-84640300D01*
X132915272Y-83990300D01*
X132903012Y-83865818D01*
X132889990Y-83822889D01*
X135163403Y-86096303D01*
X135187201Y-86125301D01*
X135302926Y-86220274D01*
X135434955Y-86290846D01*
X135578216Y-86334303D01*
X135689869Y-86345300D01*
X135689877Y-86345300D01*
X135727202Y-86348976D01*
X135764527Y-86345300D01*
X137269746Y-86345300D01*
X137251388Y-86405818D01*
X137239128Y-86530300D01*
X137239128Y-87180300D01*
X137251388Y-87304782D01*
X137287698Y-87424480D01*
X137346663Y-87534794D01*
X137426015Y-87631485D01*
X137439855Y-87642843D01*
X135985119Y-89097580D01*
X120123122Y-89097580D01*
X118205842Y-87180300D01*
X129939128Y-87180300D01*
X129951388Y-87304782D01*
X129987698Y-87424480D01*
X130046663Y-87534794D01*
X130126015Y-87631485D01*
X130222706Y-87710837D01*
X130333020Y-87769802D01*
X130452718Y-87806112D01*
X130577200Y-87818372D01*
X131141450Y-87815300D01*
X131300200Y-87656550D01*
X131300200Y-86982300D01*
X131554200Y-86982300D01*
X131554200Y-87656550D01*
X131712950Y-87815300D01*
X132277200Y-87818372D01*
X132401682Y-87806112D01*
X132521380Y-87769802D01*
X132631694Y-87710837D01*
X132728385Y-87631485D01*
X132807737Y-87534794D01*
X132866702Y-87424480D01*
X132903012Y-87304782D01*
X132915272Y-87180300D01*
X132912200Y-87141050D01*
X132753450Y-86982300D01*
X131554200Y-86982300D01*
X131300200Y-86982300D01*
X130100950Y-86982300D01*
X129942200Y-87141050D01*
X129939128Y-87180300D01*
X118205842Y-87180300D01*
X115804444Y-84778903D01*
X115780641Y-84749899D01*
X115664916Y-84654926D01*
X115640522Y-84641887D01*
X115684262Y-84497696D01*
X115704728Y-84289900D01*
X115684262Y-84082104D01*
X115623650Y-83882293D01*
X115525222Y-83698147D01*
X115392759Y-83536741D01*
X115231353Y-83404278D01*
X115047207Y-83305850D01*
X115028981Y-83300321D01*
X115174003Y-83155299D01*
X119404239Y-83155299D01*
X118730599Y-83828940D01*
X118730599Y-83828940D01*
G37*
X118730599Y-83828940D02*
X118668461Y-83828940D01*
X118468502Y-83868714D01*
X118280144Y-83946735D01*
X118110626Y-84060003D01*
X117966463Y-84204166D01*
X117853195Y-84373684D01*
X117775174Y-84562042D01*
X117735400Y-84762001D01*
X117735400Y-84965879D01*
X117775174Y-85165838D01*
X117853195Y-85354196D01*
X117966463Y-85523714D01*
X118110626Y-85667877D01*
X118280144Y-85781145D01*
X118468502Y-85859166D01*
X118668461Y-85898940D01*
X118872339Y-85898940D01*
X119072298Y-85859166D01*
X119260656Y-85781145D01*
X119430174Y-85667877D01*
X119574337Y-85523714D01*
X119687605Y-85354196D01*
X119765626Y-85165838D01*
X119805400Y-84965879D01*
X119805400Y-84903741D01*
X120903842Y-83805300D01*
X129969746Y-83805300D01*
X129951388Y-83865818D01*
X129939128Y-83990300D01*
X129939128Y-84640300D01*
X129951388Y-84764782D01*
X129987698Y-84884480D01*
X130022880Y-84950300D01*
X129987698Y-85016120D01*
X129951388Y-85135818D01*
X129939128Y-85260300D01*
X129939128Y-85910300D01*
X129951388Y-86034782D01*
X129987698Y-86154480D01*
X130022880Y-86220300D01*
X129987698Y-86286120D01*
X129951388Y-86405818D01*
X129939128Y-86530300D01*
X129942200Y-86569550D01*
X130100950Y-86728300D01*
X131300200Y-86728300D01*
X131300200Y-86708300D01*
X131554200Y-86708300D01*
X131554200Y-86728300D01*
X132753450Y-86728300D01*
X132912200Y-86569550D01*
X132915272Y-86530300D01*
X132903012Y-86405818D01*
X132866702Y-86286120D01*
X132831520Y-86220300D01*
X132866702Y-86154480D01*
X132903012Y-86034782D01*
X132915272Y-85910300D01*
X132915272Y-85260300D01*
X132903012Y-85135818D01*
X132866702Y-85016120D01*
X132831520Y-84950300D01*
X132866702Y-84884480D01*
X132903012Y-84764782D01*
X132915272Y-84640300D01*
X132915272Y-83990300D01*
X132903012Y-83865818D01*
X132889990Y-83822889D01*
X135163403Y-86096303D01*
X135187201Y-86125301D01*
X135302926Y-86220274D01*
X135434955Y-86290846D01*
X135578216Y-86334303D01*
X135689869Y-86345300D01*
X135689877Y-86345300D01*
X135727202Y-86348976D01*
X135764527Y-86345300D01*
X137269746Y-86345300D01*
X137251388Y-86405818D01*
X137239128Y-86530300D01*
X137239128Y-87180300D01*
X137251388Y-87304782D01*
X137287698Y-87424480D01*
X137346663Y-87534794D01*
X137426015Y-87631485D01*
X137439855Y-87642843D01*
X135985119Y-89097580D01*
X120123122Y-89097580D01*
X118205842Y-87180300D01*
X129939128Y-87180300D01*
X129951388Y-87304782D01*
X129987698Y-87424480D01*
X130046663Y-87534794D01*
X130126015Y-87631485D01*
X130222706Y-87710837D01*
X130333020Y-87769802D01*
X130452718Y-87806112D01*
X130577200Y-87818372D01*
X131141450Y-87815300D01*
X131300200Y-87656550D01*
X131300200Y-86982300D01*
X131554200Y-86982300D01*
X131554200Y-87656550D01*
X131712950Y-87815300D01*
X132277200Y-87818372D01*
X132401682Y-87806112D01*
X132521380Y-87769802D01*
X132631694Y-87710837D01*
X132728385Y-87631485D01*
X132807737Y-87534794D01*
X132866702Y-87424480D01*
X132903012Y-87304782D01*
X132915272Y-87180300D01*
X132912200Y-87141050D01*
X132753450Y-86982300D01*
X131554200Y-86982300D01*
X131300200Y-86982300D01*
X130100950Y-86982300D01*
X129942200Y-87141050D01*
X129939128Y-87180300D01*
X118205842Y-87180300D01*
X115804444Y-84778903D01*
X115780641Y-84749899D01*
X115664916Y-84654926D01*
X115640522Y-84641887D01*
X115684262Y-84497696D01*
X115704728Y-84289900D01*
X115684262Y-84082104D01*
X115623650Y-83882293D01*
X115525222Y-83698147D01*
X115392759Y-83536741D01*
X115231353Y-83404278D01*
X115047207Y-83305850D01*
X115028981Y-83300321D01*
X115174003Y-83155299D01*
X119404239Y-83155299D01*
X118730599Y-83828940D01*
M02*
